<?xml version="1.0" encoding="utf-8" standalone="no"?>
<!DOCTYPE svg PUBLIC "-//W3C//DTD SVG 1.1//EN"
  "http://www.w3.org/Graphics/SVG/1.1/DTD/svg11.dtd">
<svg xmlns:xlink="http://www.w3.org/1999/xlink" width="525.445625pt" height="255.728906pt" viewBox="0 0 525.445625 255.728906" xmlns="http://www.w3.org/2000/svg" version="1.1">
 <metadata>
  <rdf:RDF xmlns:dc="http://purl.org/dc/elements/1.1/" xmlns:cc="http://creativecommons.org/ns#" xmlns:rdf="http://www.w3.org/1999/02/22-rdf-syntax-ns#">
   <cc:Work>
    <dc:type rdf:resource="http://purl.org/dc/dcmitype/StillImage"/>
    <dc:date>2024-04-04T15:04:39.321334</dc:date>
    <dc:format>image/svg+xml</dc:format>
    <dc:creator>
     <cc:Agent>
      <dc:title>Matplotlib v3.8.0, https://matplotlib.org/</dc:title>
     </cc:Agent>
    </dc:creator>
   </cc:Work>
  </rdf:RDF>
 </metadata>
 <defs>
  <style type="text/css">*{stroke-linejoin: round; stroke-linecap: butt}</style>
 </defs>
 <g id="figure_1">
  <g id="patch_1">
   <path d="M 0 255.728906 
L 525.445625 255.728906 
L 525.445625 0 
L 0 0 
L 0 255.728906 
z
" style="fill: none"/>
  </g>
  <g id="axes_1">
   <g id="patch_2">
    <path d="M 56.259687 206.558906 
L 502.659687 206.558906 
L 502.659687 12.518906 
L 56.259687 12.518906 
L 56.259687 206.558906 
z
" style="fill: none"/>
   </g>
   <g id="patch_3">
    <path d="M 56.259687 206.558906 
L 502.659687 206.558906 
L 502.659687 12.518906 
L 56.259687 12.518906 
z
" clip-path="url(#p284d3d0f2d)" style="fill: #cce6ff; stroke: #cce6ff; stroke-linejoin: miter"/>
   </g>
   <g id="patch_4">
    <path d="M 56.259687 44.858906 
L 100.899687 44.858906 
L 100.899687 12.518906 
L 56.259687 12.518906 
z
" clip-path="url(#p284d3d0f2d)" style="fill: #ffff4c; stroke: #ffff4c; stroke-linejoin: miter"/>
   </g>
   <g id="patch_5">
    <path d="M 435.699687 61.028906 
L 480.339687 61.028906 
L 480.339687 28.688906 
L 435.699687 28.688906 
z
" clip-path="url(#p284d3d0f2d)" style="fill: #ffff4c; stroke: #ffff4c; stroke-linejoin: miter"/>
   </g>
   <g id="patch_6">
    <path d="M 56.259687 206.558906 
L 502.659687 206.558906 
L 502.659687 174.218906 
L 56.259687 174.218906 
z
" clip-path="url(#p284d3d0f2d)" style="fill: #4cff66; stroke: #4cff66; stroke-linejoin: miter"/>
   </g>
   <g id="patch_7">
    <path d="M 100.899687 141.878906 
L 212.499687 141.878906 
L 212.499687 109.538906 
L 100.899687 109.538906 
z
" clip-path="url(#p284d3d0f2d)" style="fill: #0080ff; stroke: #0080ff; stroke-linejoin: miter"/>
   </g>
   <g id="patch_8">
    <path d="M 234.819687 125.708906 
L 324.099687 125.708906 
L 324.099687 12.518906 
L 234.819687 12.518906 
z
" clip-path="url(#p284d3d0f2d)" style="fill: #ff4c4c; stroke: #ff4c4c; stroke-linejoin: miter"/>
   </g>
   <g id="matplotlib.axis_1">
    <g id="xtick_1">
     <g id="line2d_1">
      <defs>
       <path id="mabd3cadf81" d="M 0 0 
L 0 3.5 
" style="stroke: #000000; stroke-width: 0.8"/>
      </defs>
      <g>
       <use xlink:href="#mabd3cadf81" x="56.259687" y="206.558906" style="stroke: #000000; stroke-width: 0.8"/>
      </g>
     </g>
     <g id="text_1">
      <!-- −10.0 -->
      <g transform="translate(34.807969 224.196719) scale(0.14 -0.14)">
       <defs>
        <path id="DejaVuSans-2212" d="M 678 2272 
L 4684 2272 
L 4684 1741 
L 678 1741 
L 678 2272 
z
" transform="scale(0.015625)"/>
        <path id="DejaVuSans-31" d="M 794 531 
L 1825 531 
L 1825 4091 
L 703 3866 
L 703 4441 
L 1819 4666 
L 2450 4666 
L 2450 531 
L 3481 531 
L 3481 0 
L 794 0 
L 794 531 
z
" transform="scale(0.015625)"/>
        <path id="DejaVuSans-30" d="M 2034 4250 
Q 1547 4250 1301 3770 
Q 1056 3291 1056 2328 
Q 1056 1369 1301 889 
Q 1547 409 2034 409 
Q 2525 409 2770 889 
Q 3016 1369 3016 2328 
Q 3016 3291 2770 3770 
Q 2525 4250 2034 4250 
z
M 2034 4750 
Q 2819 4750 3233 4129 
Q 3647 3509 3647 2328 
Q 3647 1150 3233 529 
Q 2819 -91 2034 -91 
Q 1250 -91 836 529 
Q 422 1150 422 2328 
Q 422 3509 836 4129 
Q 1250 4750 2034 4750 
z
" transform="scale(0.015625)"/>
        <path id="DejaVuSans-2e" d="M 684 794 
L 1344 794 
L 1344 0 
L 684 0 
L 684 794 
z
" transform="scale(0.015625)"/>
       </defs>
       <use xlink:href="#DejaVuSans-2212"/>
       <use xlink:href="#DejaVuSans-31" x="83.789062"/>
       <use xlink:href="#DejaVuSans-30" x="147.412109"/>
       <use xlink:href="#DejaVuSans-2e" x="211.035156"/>
       <use xlink:href="#DejaVuSans-30" x="242.822266"/>
      </g>
     </g>
    </g>
    <g id="xtick_2">
     <g id="line2d_2">
      <g>
       <use xlink:href="#mabd3cadf81" x="112.059687" y="206.558906" style="stroke: #000000; stroke-width: 0.8"/>
      </g>
     </g>
     <g id="text_2">
      <!-- −7.5 -->
      <g transform="translate(95.061719 224.196719) scale(0.14 -0.14)">
       <defs>
        <path id="DejaVuSans-37" d="M 525 4666 
L 3525 4666 
L 3525 4397 
L 1831 0 
L 1172 0 
L 2766 4134 
L 525 4134 
L 525 4666 
z
" transform="scale(0.015625)"/>
        <path id="DejaVuSans-35" d="M 691 4666 
L 3169 4666 
L 3169 4134 
L 1269 4134 
L 1269 2991 
Q 1406 3038 1543 3061 
Q 1681 3084 1819 3084 
Q 2600 3084 3056 2656 
Q 3513 2228 3513 1497 
Q 3513 744 3044 326 
Q 2575 -91 1722 -91 
Q 1428 -91 1123 -41 
Q 819 9 494 109 
L 494 744 
Q 775 591 1075 516 
Q 1375 441 1709 441 
Q 2250 441 2565 725 
Q 2881 1009 2881 1497 
Q 2881 1984 2565 2268 
Q 2250 2553 1709 2553 
Q 1456 2553 1204 2497 
Q 953 2441 691 2322 
L 691 4666 
z
" transform="scale(0.015625)"/>
       </defs>
       <use xlink:href="#DejaVuSans-2212"/>
       <use xlink:href="#DejaVuSans-37" x="83.789062"/>
       <use xlink:href="#DejaVuSans-2e" x="147.412109"/>
       <use xlink:href="#DejaVuSans-35" x="179.199219"/>
      </g>
     </g>
    </g>
    <g id="xtick_3">
     <g id="line2d_3">
      <g>
       <use xlink:href="#mabd3cadf81" x="167.859687" y="206.558906" style="stroke: #000000; stroke-width: 0.8"/>
      </g>
     </g>
     <g id="text_3">
      <!-- −5.0 -->
      <g transform="translate(150.861719 224.196719) scale(0.14 -0.14)">
       <use xlink:href="#DejaVuSans-2212"/>
       <use xlink:href="#DejaVuSans-35" x="83.789062"/>
       <use xlink:href="#DejaVuSans-2e" x="147.412109"/>
       <use xlink:href="#DejaVuSans-30" x="179.199219"/>
      </g>
     </g>
    </g>
    <g id="xtick_4">
     <g id="line2d_4">
      <g>
       <use xlink:href="#mabd3cadf81" x="223.659687" y="206.558906" style="stroke: #000000; stroke-width: 0.8"/>
      </g>
     </g>
     <g id="text_4">
      <!-- −2.5 -->
      <g transform="translate(206.661719 224.196719) scale(0.14 -0.14)">
       <defs>
        <path id="DejaVuSans-32" d="M 1228 531 
L 3431 531 
L 3431 0 
L 469 0 
L 469 531 
Q 828 903 1448 1529 
Q 2069 2156 2228 2338 
Q 2531 2678 2651 2914 
Q 2772 3150 2772 3378 
Q 2772 3750 2511 3984 
Q 2250 4219 1831 4219 
Q 1534 4219 1204 4116 
Q 875 4013 500 3803 
L 500 4441 
Q 881 4594 1212 4672 
Q 1544 4750 1819 4750 
Q 2544 4750 2975 4387 
Q 3406 4025 3406 3419 
Q 3406 3131 3298 2873 
Q 3191 2616 2906 2266 
Q 2828 2175 2409 1742 
Q 1991 1309 1228 531 
z
" transform="scale(0.015625)"/>
       </defs>
       <use xlink:href="#DejaVuSans-2212"/>
       <use xlink:href="#DejaVuSans-32" x="83.789062"/>
       <use xlink:href="#DejaVuSans-2e" x="147.412109"/>
       <use xlink:href="#DejaVuSans-35" x="179.199219"/>
      </g>
     </g>
    </g>
    <g id="xtick_5">
     <g id="line2d_5">
      <g>
       <use xlink:href="#mabd3cadf81" x="279.459687" y="206.558906" style="stroke: #000000; stroke-width: 0.8"/>
      </g>
     </g>
     <g id="text_5">
      <!-- 0.0 -->
      <g transform="translate(268.3275 224.196719) scale(0.14 -0.14)">
       <use xlink:href="#DejaVuSans-30"/>
       <use xlink:href="#DejaVuSans-2e" x="63.623047"/>
       <use xlink:href="#DejaVuSans-30" x="95.410156"/>
      </g>
     </g>
    </g>
    <g id="xtick_6">
     <g id="line2d_6">
      <g>
       <use xlink:href="#mabd3cadf81" x="335.259687" y="206.558906" style="stroke: #000000; stroke-width: 0.8"/>
      </g>
     </g>
     <g id="text_6">
      <!-- 2.5 -->
      <g transform="translate(324.1275 224.196719) scale(0.14 -0.14)">
       <use xlink:href="#DejaVuSans-32"/>
       <use xlink:href="#DejaVuSans-2e" x="63.623047"/>
       <use xlink:href="#DejaVuSans-35" x="95.410156"/>
      </g>
     </g>
    </g>
    <g id="xtick_7">
     <g id="line2d_7">
      <g>
       <use xlink:href="#mabd3cadf81" x="391.059687" y="206.558906" style="stroke: #000000; stroke-width: 0.8"/>
      </g>
     </g>
     <g id="text_7">
      <!-- 5.0 -->
      <g transform="translate(379.9275 224.196719) scale(0.14 -0.14)">
       <use xlink:href="#DejaVuSans-35"/>
       <use xlink:href="#DejaVuSans-2e" x="63.623047"/>
       <use xlink:href="#DejaVuSans-30" x="95.410156"/>
      </g>
     </g>
    </g>
    <g id="xtick_8">
     <g id="line2d_8">
      <g>
       <use xlink:href="#mabd3cadf81" x="446.859687" y="206.558906" style="stroke: #000000; stroke-width: 0.8"/>
      </g>
     </g>
     <g id="text_8">
      <!-- 7.5 -->
      <g transform="translate(435.7275 224.196719) scale(0.14 -0.14)">
       <use xlink:href="#DejaVuSans-37"/>
       <use xlink:href="#DejaVuSans-2e" x="63.623047"/>
       <use xlink:href="#DejaVuSans-35" x="95.410156"/>
      </g>
     </g>
    </g>
    <g id="xtick_9">
     <g id="line2d_9">
      <g>
       <use xlink:href="#mabd3cadf81" x="502.659687" y="206.558906" style="stroke: #000000; stroke-width: 0.8"/>
      </g>
     </g>
     <g id="text_9">
      <!-- 10.0 -->
      <g transform="translate(487.07375 224.196719) scale(0.14 -0.14)">
       <use xlink:href="#DejaVuSans-31"/>
       <use xlink:href="#DejaVuSans-30" x="63.623047"/>
       <use xlink:href="#DejaVuSans-2e" x="127.246094"/>
       <use xlink:href="#DejaVuSans-30" x="159.033203"/>
      </g>
     </g>
    </g>
    <g id="text_10">
     <!-- $x_{1}$ -->
     <g transform="translate(269.829687 244.785469) scale(0.18 -0.18)">
      <defs>
       <path id="DejaVuSans-Oblique-78" d="M 3841 3500 
L 2234 1784 
L 3219 0 
L 2559 0 
L 1819 1388 
L 531 0 
L -166 0 
L 1556 1844 
L 641 3500 
L 1300 3500 
L 1972 2234 
L 3144 3500 
L 3841 3500 
z
" transform="scale(0.015625)"/>
      </defs>
      <use xlink:href="#DejaVuSans-Oblique-78" transform="translate(0 0.3125)"/>
      <use xlink:href="#DejaVuSans-31" transform="translate(59.179688 -16.09375) scale(0.7)"/>
     </g>
    </g>
   </g>
   <g id="matplotlib.axis_2">
    <g id="ytick_1">
     <g id="line2d_10">
      <defs>
       <path id="med656318ae" d="M 0 0 
L -3.5 0 
" style="stroke: #000000; stroke-width: 0.8"/>
      </defs>
      <g>
       <use xlink:href="#med656318ae" x="56.259687" y="206.558906" style="stroke: #000000; stroke-width: 0.8"/>
      </g>
     </g>
     <g id="text_11">
      <!-- −2 -->
      <g transform="translate(28.620625 211.877812) scale(0.14 -0.14)">
       <use xlink:href="#DejaVuSans-2212"/>
       <use xlink:href="#DejaVuSans-32" x="83.789062"/>
      </g>
     </g>
    </g>
    <g id="ytick_2">
     <g id="line2d_11">
      <g>
       <use xlink:href="#med656318ae" x="56.259687" y="174.218906" style="stroke: #000000; stroke-width: 0.8"/>
      </g>
     </g>
     <g id="text_12">
      <!-- 0 -->
      <g transform="translate(40.352187 179.537812) scale(0.14 -0.14)">
       <use xlink:href="#DejaVuSans-30"/>
      </g>
     </g>
    </g>
    <g id="ytick_3">
     <g id="line2d_12">
      <g>
       <use xlink:href="#med656318ae" x="56.259687" y="141.878906" style="stroke: #000000; stroke-width: 0.8"/>
      </g>
     </g>
     <g id="text_13">
      <!-- 2 -->
      <g transform="translate(40.352187 147.197812) scale(0.14 -0.14)">
       <use xlink:href="#DejaVuSans-32"/>
      </g>
     </g>
    </g>
    <g id="ytick_4">
     <g id="line2d_13">
      <g>
       <use xlink:href="#med656318ae" x="56.259687" y="109.538906" style="stroke: #000000; stroke-width: 0.8"/>
      </g>
     </g>
     <g id="text_14">
      <!-- 4 -->
      <g transform="translate(40.352187 114.857812) scale(0.14 -0.14)">
       <defs>
        <path id="DejaVuSans-34" d="M 2419 4116 
L 825 1625 
L 2419 1625 
L 2419 4116 
z
M 2253 4666 
L 3047 4666 
L 3047 1625 
L 3713 1625 
L 3713 1100 
L 3047 1100 
L 3047 0 
L 2419 0 
L 2419 1100 
L 313 1100 
L 313 1709 
L 2253 4666 
z
" transform="scale(0.015625)"/>
       </defs>
       <use xlink:href="#DejaVuSans-34"/>
      </g>
     </g>
    </g>
    <g id="ytick_5">
     <g id="line2d_14">
      <g>
       <use xlink:href="#med656318ae" x="56.259687" y="77.198906" style="stroke: #000000; stroke-width: 0.8"/>
      </g>
     </g>
     <g id="text_15">
      <!-- 6 -->
      <g transform="translate(40.352187 82.517812) scale(0.14 -0.14)">
       <defs>
        <path id="DejaVuSans-36" d="M 2113 2584 
Q 1688 2584 1439 2293 
Q 1191 2003 1191 1497 
Q 1191 994 1439 701 
Q 1688 409 2113 409 
Q 2538 409 2786 701 
Q 3034 994 3034 1497 
Q 3034 2003 2786 2293 
Q 2538 2584 2113 2584 
z
M 3366 4563 
L 3366 3988 
Q 3128 4100 2886 4159 
Q 2644 4219 2406 4219 
Q 1781 4219 1451 3797 
Q 1122 3375 1075 2522 
Q 1259 2794 1537 2939 
Q 1816 3084 2150 3084 
Q 2853 3084 3261 2657 
Q 3669 2231 3669 1497 
Q 3669 778 3244 343 
Q 2819 -91 2113 -91 
Q 1303 -91 875 529 
Q 447 1150 447 2328 
Q 447 3434 972 4092 
Q 1497 4750 2381 4750 
Q 2619 4750 2861 4703 
Q 3103 4656 3366 4563 
z
" transform="scale(0.015625)"/>
       </defs>
       <use xlink:href="#DejaVuSans-36"/>
      </g>
     </g>
    </g>
    <g id="ytick_6">
     <g id="line2d_15">
      <g>
       <use xlink:href="#med656318ae" x="56.259687" y="44.858906" style="stroke: #000000; stroke-width: 0.8"/>
      </g>
     </g>
     <g id="text_16">
      <!-- 8 -->
      <g transform="translate(40.352187 50.177813) scale(0.14 -0.14)">
       <defs>
        <path id="DejaVuSans-38" d="M 2034 2216 
Q 1584 2216 1326 1975 
Q 1069 1734 1069 1313 
Q 1069 891 1326 650 
Q 1584 409 2034 409 
Q 2484 409 2743 651 
Q 3003 894 3003 1313 
Q 3003 1734 2745 1975 
Q 2488 2216 2034 2216 
z
M 1403 2484 
Q 997 2584 770 2862 
Q 544 3141 544 3541 
Q 544 4100 942 4425 
Q 1341 4750 2034 4750 
Q 2731 4750 3128 4425 
Q 3525 4100 3525 3541 
Q 3525 3141 3298 2862 
Q 3072 2584 2669 2484 
Q 3125 2378 3379 2068 
Q 3634 1759 3634 1313 
Q 3634 634 3220 271 
Q 2806 -91 2034 -91 
Q 1263 -91 848 271 
Q 434 634 434 1313 
Q 434 1759 690 2068 
Q 947 2378 1403 2484 
z
M 1172 3481 
Q 1172 3119 1398 2916 
Q 1625 2713 2034 2713 
Q 2441 2713 2670 2916 
Q 2900 3119 2900 3481 
Q 2900 3844 2670 4047 
Q 2441 4250 2034 4250 
Q 1625 4250 1398 4047 
Q 1172 3844 1172 3481 
z
" transform="scale(0.015625)"/>
       </defs>
       <use xlink:href="#DejaVuSans-38"/>
      </g>
     </g>
    </g>
    <g id="ytick_7">
     <g id="line2d_16">
      <g>
       <use xlink:href="#med656318ae" x="56.259687" y="12.518906" style="stroke: #000000; stroke-width: 0.8"/>
      </g>
     </g>
     <g id="text_17">
      <!-- 10 -->
      <g transform="translate(31.444687 17.837813) scale(0.14 -0.14)">
       <use xlink:href="#DejaVuSans-31"/>
       <use xlink:href="#DejaVuSans-30" x="63.623047"/>
      </g>
     </g>
    </g>
    <g id="text_18">
     <!-- $x_{2}$ -->
     <g transform="translate(20.877187 119.168906) rotate(-90) scale(0.18 -0.18)">
      <use xlink:href="#DejaVuSans-Oblique-78" transform="translate(0 0.3125)"/>
      <use xlink:href="#DejaVuSans-32" transform="translate(59.179688 -16.09375) scale(0.7)"/>
     </g>
    </g>
   </g>
   <g id="line2d_17">
    <path d="M 279.459687 174.218906 
L 281.245062 173.901678 
L 281.341384 175.249252 
L 281.0645 175.505794 
L 280.981909 175.959206 
L 280.938171 176.304304 
L 287.739615 171.363111 
L 294.541059 166.421919 
L 301.342503 161.480727 
L 308.143947 156.539535 
L 314.945391 151.598343 
L 321.746835 146.65715 
L 328.548278 141.715958 
L 335.349722 136.774766 
L 342.151166 131.668194 
L 348.95261 126.561622 
L 355.754054 121.455051 
L 362.555498 116.348479 
L 369.356942 111.241907 
L 376.158386 106.135336 
L 382.95983 101.028764 
L 389.761274 95.922192 
L 396.562718 90.81562 
L 403.364162 85.709049 
L 410.165606 80.602477 
L 416.96705 75.495905 
L 423.768493 70.389334 
L 430.569937 65.282762 
L 437.371381 60.17619 
L 444.172825 55.069618 
L 450.974269 49.963047 
L 450.974269 49.963047 
L 450.974269 49.963047 
L 450.974269 49.963047 
L 450.974269 49.963047 
L 450.974269 49.963047 
L 450.974269 49.963047 
L 450.974269 49.963047 
L 450.974269 49.963047 
L 450.974269 49.963047 
L 450.974269 49.963047 
" clip-path="url(#p284d3d0f2d)" style="fill: none; stroke: #ff0000; stroke-width: 2; stroke-linecap: square"/>
    <defs>
     <path id="m782133fc43" d="M 0 2 
C 0.530406 2 1.03916 1.789267 1.414214 1.414214 
C 1.789267 1.03916 2 0.530406 2 0 
C 2 -0.530406 1.789267 -1.03916 1.414214 -1.414214 
C 1.03916 -1.789267 0.530406 -2 0 -2 
C -0.530406 -2 -1.03916 -1.789267 -1.414214 -1.414214 
C -1.789267 -1.03916 -2 -0.530406 -2 0 
C -2 0.530406 -1.789267 1.03916 -1.414214 1.414214 
C -1.03916 1.789267 -0.530406 2 0 2 
z
" style="stroke: #ff0000"/>
    </defs>
    <g clip-path="url(#p284d3d0f2d)">
     <use xlink:href="#m782133fc43" x="279.459687" y="174.218906" style="fill: #ff0000; stroke: #ff0000"/>
     <use xlink:href="#m782133fc43" x="281.245062" y="173.901678" style="fill: #ff0000; stroke: #ff0000"/>
     <use xlink:href="#m782133fc43" x="281.341384" y="175.249252" style="fill: #ff0000; stroke: #ff0000"/>
     <use xlink:href="#m782133fc43" x="281.0645" y="175.505794" style="fill: #ff0000; stroke: #ff0000"/>
     <use xlink:href="#m782133fc43" x="280.981909" y="175.959206" style="fill: #ff0000; stroke: #ff0000"/>
     <use xlink:href="#m782133fc43" x="280.938171" y="176.304304" style="fill: #ff0000; stroke: #ff0000"/>
     <use xlink:href="#m782133fc43" x="287.739615" y="171.363111" style="fill: #ff0000; stroke: #ff0000"/>
     <use xlink:href="#m782133fc43" x="294.541059" y="166.421919" style="fill: #ff0000; stroke: #ff0000"/>
     <use xlink:href="#m782133fc43" x="301.342503" y="161.480727" style="fill: #ff0000; stroke: #ff0000"/>
     <use xlink:href="#m782133fc43" x="308.143947" y="156.539535" style="fill: #ff0000; stroke: #ff0000"/>
     <use xlink:href="#m782133fc43" x="314.945391" y="151.598343" style="fill: #ff0000; stroke: #ff0000"/>
     <use xlink:href="#m782133fc43" x="321.746835" y="146.65715" style="fill: #ff0000; stroke: #ff0000"/>
     <use xlink:href="#m782133fc43" x="328.548278" y="141.715958" style="fill: #ff0000; stroke: #ff0000"/>
     <use xlink:href="#m782133fc43" x="335.349722" y="136.774766" style="fill: #ff0000; stroke: #ff0000"/>
     <use xlink:href="#m782133fc43" x="342.151166" y="131.668194" style="fill: #ff0000; stroke: #ff0000"/>
     <use xlink:href="#m782133fc43" x="348.95261" y="126.561622" style="fill: #ff0000; stroke: #ff0000"/>
     <use xlink:href="#m782133fc43" x="355.754054" y="121.455051" style="fill: #ff0000; stroke: #ff0000"/>
     <use xlink:href="#m782133fc43" x="362.555498" y="116.348479" style="fill: #ff0000; stroke: #ff0000"/>
     <use xlink:href="#m782133fc43" x="369.356942" y="111.241907" style="fill: #ff0000; stroke: #ff0000"/>
     <use xlink:href="#m782133fc43" x="376.158386" y="106.135336" style="fill: #ff0000; stroke: #ff0000"/>
     <use xlink:href="#m782133fc43" x="382.95983" y="101.028764" style="fill: #ff0000; stroke: #ff0000"/>
     <use xlink:href="#m782133fc43" x="389.761274" y="95.922192" style="fill: #ff0000; stroke: #ff0000"/>
     <use xlink:href="#m782133fc43" x="396.562718" y="90.81562" style="fill: #ff0000; stroke: #ff0000"/>
     <use xlink:href="#m782133fc43" x="403.364162" y="85.709049" style="fill: #ff0000; stroke: #ff0000"/>
     <use xlink:href="#m782133fc43" x="410.165606" y="80.602477" style="fill: #ff0000; stroke: #ff0000"/>
     <use xlink:href="#m782133fc43" x="416.96705" y="75.495905" style="fill: #ff0000; stroke: #ff0000"/>
     <use xlink:href="#m782133fc43" x="423.768493" y="70.389334" style="fill: #ff0000; stroke: #ff0000"/>
     <use xlink:href="#m782133fc43" x="430.569937" y="65.282762" style="fill: #ff0000; stroke: #ff0000"/>
     <use xlink:href="#m782133fc43" x="437.371381" y="60.17619" style="fill: #ff0000; stroke: #ff0000"/>
     <use xlink:href="#m782133fc43" x="444.172825" y="55.069618" style="fill: #ff0000; stroke: #ff0000"/>
     <use xlink:href="#m782133fc43" x="450.974269" y="49.963047" style="fill: #ff0000; stroke: #ff0000"/>
     <use xlink:href="#m782133fc43" x="450.974269" y="49.963047" style="fill: #ff0000; stroke: #ff0000"/>
     <use xlink:href="#m782133fc43" x="450.974269" y="49.963047" style="fill: #ff0000; stroke: #ff0000"/>
     <use xlink:href="#m782133fc43" x="450.974269" y="49.963047" style="fill: #ff0000; stroke: #ff0000"/>
     <use xlink:href="#m782133fc43" x="450.974269" y="49.963047" style="fill: #ff0000; stroke: #ff0000"/>
     <use xlink:href="#m782133fc43" x="450.974269" y="49.963047" style="fill: #ff0000; stroke: #ff0000"/>
     <use xlink:href="#m782133fc43" x="450.974269" y="49.963047" style="fill: #ff0000; stroke: #ff0000"/>
     <use xlink:href="#m782133fc43" x="450.974269" y="49.963047" style="fill: #ff0000; stroke: #ff0000"/>
     <use xlink:href="#m782133fc43" x="450.974269" y="49.963047" style="fill: #ff0000; stroke: #ff0000"/>
     <use xlink:href="#m782133fc43" x="450.974269" y="49.963047" style="fill: #ff0000; stroke: #ff0000"/>
     <use xlink:href="#m782133fc43" x="450.974269" y="49.963047" style="fill: #ff0000; stroke: #ff0000"/>
    </g>
   </g>
   <g id="line2d_18">
    <path d="M 279.459687 174.218906 
L 281.245062 173.901678 
L 281.341384 175.249252 
L 281.0645 175.505794 
L 280.981909 175.959206 
L 280.938171 176.304304 
L 286.42814 170.723402 
L 294.163944 164.637328 
L 301.031727 160.286208 
L 307.302929 156.702246 
L 315.125002 152.516607 
L 320.734574 147.537643 
L 329.07274 142.230958 
L 334.823124 137.62056 
L 342.279652 132.58031 
L 348.305628 127.583077 
L 326.722696 136.774766 
L 305.139765 136.774766 
L 283.556833 136.774766 
L 261.973901 136.774766 
L 240.390969 136.774766 
L 218.808038 128.689766 
L 197.225106 120.604766 
L 183.275106 109.753301 
L 169.325106 98.901836 
L 155.375106 88.050371 
L 141.425106 77.198906 
L 127.475106 66.347441 
L 113.525106 55.495976 
L 99.575106 44.644512 
L 85.625106 33.793047 
L 85.625106 33.793047 
L 85.625106 33.793047 
L 85.625106 33.793047 
L 85.625106 33.793047 
L 85.625106 33.793047 
L 85.625106 33.793047 
L 85.625106 33.793047 
L 85.625106 33.793047 
L 85.625106 33.793047 
L 85.625106 33.793047 
" clip-path="url(#p284d3d0f2d)" style="fill: none; stroke: #ff9900; stroke-width: 2; stroke-linecap: square"/>
    <defs>
     <path id="m6655f99036" d="M 0 2 
C 0.530406 2 1.03916 1.789267 1.414214 1.414214 
C 1.789267 1.03916 2 0.530406 2 0 
C 2 -0.530406 1.789267 -1.03916 1.414214 -1.414214 
C 1.03916 -1.789267 0.530406 -2 0 -2 
C -0.530406 -2 -1.03916 -1.789267 -1.414214 -1.414214 
C -1.789267 -1.03916 -2 -0.530406 -2 0 
C -2 0.530406 -1.789267 1.03916 -1.414214 1.414214 
C -1.03916 1.789267 -0.530406 2 0 2 
z
" style="stroke: #ff9900"/>
    </defs>
    <g clip-path="url(#p284d3d0f2d)">
     <use xlink:href="#m6655f99036" x="279.459687" y="174.218906" style="fill: #ff9900; stroke: #ff9900"/>
     <use xlink:href="#m6655f99036" x="281.245062" y="173.901678" style="fill: #ff9900; stroke: #ff9900"/>
     <use xlink:href="#m6655f99036" x="281.341384" y="175.249252" style="fill: #ff9900; stroke: #ff9900"/>
     <use xlink:href="#m6655f99036" x="281.0645" y="175.505794" style="fill: #ff9900; stroke: #ff9900"/>
     <use xlink:href="#m6655f99036" x="280.981909" y="175.959206" style="fill: #ff9900; stroke: #ff9900"/>
     <use xlink:href="#m6655f99036" x="280.938171" y="176.304304" style="fill: #ff9900; stroke: #ff9900"/>
     <use xlink:href="#m6655f99036" x="286.42814" y="170.723402" style="fill: #ff9900; stroke: #ff9900"/>
     <use xlink:href="#m6655f99036" x="294.163944" y="164.637328" style="fill: #ff9900; stroke: #ff9900"/>
     <use xlink:href="#m6655f99036" x="301.031727" y="160.286208" style="fill: #ff9900; stroke: #ff9900"/>
     <use xlink:href="#m6655f99036" x="307.302929" y="156.702246" style="fill: #ff9900; stroke: #ff9900"/>
     <use xlink:href="#m6655f99036" x="315.125002" y="152.516607" style="fill: #ff9900; stroke: #ff9900"/>
     <use xlink:href="#m6655f99036" x="320.734574" y="147.537643" style="fill: #ff9900; stroke: #ff9900"/>
     <use xlink:href="#m6655f99036" x="329.07274" y="142.230958" style="fill: #ff9900; stroke: #ff9900"/>
     <use xlink:href="#m6655f99036" x="334.823124" y="137.62056" style="fill: #ff9900; stroke: #ff9900"/>
     <use xlink:href="#m6655f99036" x="342.279652" y="132.58031" style="fill: #ff9900; stroke: #ff9900"/>
     <use xlink:href="#m6655f99036" x="348.305628" y="127.583077" style="fill: #ff9900; stroke: #ff9900"/>
     <use xlink:href="#m6655f99036" x="326.722696" y="136.774766" style="fill: #ff9900; stroke: #ff9900"/>
     <use xlink:href="#m6655f99036" x="305.139765" y="136.774766" style="fill: #ff9900; stroke: #ff9900"/>
     <use xlink:href="#m6655f99036" x="283.556833" y="136.774766" style="fill: #ff9900; stroke: #ff9900"/>
     <use xlink:href="#m6655f99036" x="261.973901" y="136.774766" style="fill: #ff9900; stroke: #ff9900"/>
     <use xlink:href="#m6655f99036" x="240.390969" y="136.774766" style="fill: #ff9900; stroke: #ff9900"/>
     <use xlink:href="#m6655f99036" x="218.808038" y="128.689766" style="fill: #ff9900; stroke: #ff9900"/>
     <use xlink:href="#m6655f99036" x="197.225106" y="120.604766" style="fill: #ff9900; stroke: #ff9900"/>
     <use xlink:href="#m6655f99036" x="183.275106" y="109.753301" style="fill: #ff9900; stroke: #ff9900"/>
     <use xlink:href="#m6655f99036" x="169.325106" y="98.901836" style="fill: #ff9900; stroke: #ff9900"/>
     <use xlink:href="#m6655f99036" x="155.375106" y="88.050371" style="fill: #ff9900; stroke: #ff9900"/>
     <use xlink:href="#m6655f99036" x="141.425106" y="77.198906" style="fill: #ff9900; stroke: #ff9900"/>
     <use xlink:href="#m6655f99036" x="127.475106" y="66.347441" style="fill: #ff9900; stroke: #ff9900"/>
     <use xlink:href="#m6655f99036" x="113.525106" y="55.495976" style="fill: #ff9900; stroke: #ff9900"/>
     <use xlink:href="#m6655f99036" x="99.575106" y="44.644512" style="fill: #ff9900; stroke: #ff9900"/>
     <use xlink:href="#m6655f99036" x="85.625106" y="33.793047" style="fill: #ff9900; stroke: #ff9900"/>
     <use xlink:href="#m6655f99036" x="85.625106" y="33.793047" style="fill: #ff9900; stroke: #ff9900"/>
     <use xlink:href="#m6655f99036" x="85.625106" y="33.793047" style="fill: #ff9900; stroke: #ff9900"/>
     <use xlink:href="#m6655f99036" x="85.625106" y="33.793047" style="fill: #ff9900; stroke: #ff9900"/>
     <use xlink:href="#m6655f99036" x="85.625106" y="33.793047" style="fill: #ff9900; stroke: #ff9900"/>
     <use xlink:href="#m6655f99036" x="85.625106" y="33.793047" style="fill: #ff9900; stroke: #ff9900"/>
     <use xlink:href="#m6655f99036" x="85.625106" y="33.793047" style="fill: #ff9900; stroke: #ff9900"/>
     <use xlink:href="#m6655f99036" x="85.625106" y="33.793047" style="fill: #ff9900; stroke: #ff9900"/>
     <use xlink:href="#m6655f99036" x="85.625106" y="33.793047" style="fill: #ff9900; stroke: #ff9900"/>
     <use xlink:href="#m6655f99036" x="85.625106" y="33.793047" style="fill: #ff9900; stroke: #ff9900"/>
     <use xlink:href="#m6655f99036" x="85.625106" y="33.793047" style="fill: #ff9900; stroke: #ff9900"/>
    </g>
   </g>
   <g id="line2d_19">
    <path d="M 279.459687 174.218906 
L 281.245062 173.901678 
L 281.341384 175.249252 
L 281.0645 175.505794 
L 280.981909 175.959206 
L 280.938171 176.304304 
L 286.42814 170.723402 
L 294.163944 164.637328 
L 301.031727 160.286208 
L 307.302929 156.702246 
L 315.125002 152.516607 
L 320.734574 147.537643 
L 329.07274 142.230958 
L 334.823124 137.62056 
L 342.279652 132.58031 
L 348.305628 127.583077 
L 326.722696 136.774766 
L 305.139765 136.774766 
L 282.388685 138.488649 
L 260.175679 138.372117 
L 240.314088 136.870159 
L 197.225106 120.604766 
L 169.325106 98.901836 
L 141.425106 77.198906 
L 113.525106 55.495976 
L 85.625106 33.793047 
L 85.625106 64.091391 
L 85.625106 94.389734 
L 85.625106 124.688078 
L 85.625106 154.986422 
L 85.625106 185.284766 
L 85.625106 185.284766 
L 85.625106 185.284766 
L 85.625106 185.284766 
L 85.625106 185.284766 
L 85.625106 185.284766 
L 85.625106 185.284766 
L 85.625106 185.284766 
L 85.625106 185.284766 
L 85.625106 185.284766 
L 85.625106 185.284766 
" clip-path="url(#p284d3d0f2d)" style="fill: none; stroke: #00994c; stroke-width: 2; stroke-linecap: square"/>
    <defs>
     <path id="mf030f36d2d" d="M 0 2 
C 0.530406 2 1.03916 1.789267 1.414214 1.414214 
C 1.789267 1.03916 2 0.530406 2 0 
C 2 -0.530406 1.789267 -1.03916 1.414214 -1.414214 
C 1.03916 -1.789267 0.530406 -2 0 -2 
C -0.530406 -2 -1.03916 -1.789267 -1.414214 -1.414214 
C -1.789267 -1.03916 -2 -0.530406 -2 0 
C -2 0.530406 -1.789267 1.03916 -1.414214 1.414214 
C -1.03916 1.789267 -0.530406 2 0 2 
z
" style="stroke: #00994c"/>
    </defs>
    <g clip-path="url(#p284d3d0f2d)">
     <use xlink:href="#mf030f36d2d" x="279.459687" y="174.218906" style="fill: #00994c; stroke: #00994c"/>
     <use xlink:href="#mf030f36d2d" x="281.245062" y="173.901678" style="fill: #00994c; stroke: #00994c"/>
     <use xlink:href="#mf030f36d2d" x="281.341384" y="175.249252" style="fill: #00994c; stroke: #00994c"/>
     <use xlink:href="#mf030f36d2d" x="281.0645" y="175.505794" style="fill: #00994c; stroke: #00994c"/>
     <use xlink:href="#mf030f36d2d" x="280.981909" y="175.959206" style="fill: #00994c; stroke: #00994c"/>
     <use xlink:href="#mf030f36d2d" x="280.938171" y="176.304304" style="fill: #00994c; stroke: #00994c"/>
     <use xlink:href="#mf030f36d2d" x="286.42814" y="170.723402" style="fill: #00994c; stroke: #00994c"/>
     <use xlink:href="#mf030f36d2d" x="294.163944" y="164.637328" style="fill: #00994c; stroke: #00994c"/>
     <use xlink:href="#mf030f36d2d" x="301.031727" y="160.286208" style="fill: #00994c; stroke: #00994c"/>
     <use xlink:href="#mf030f36d2d" x="307.302929" y="156.702246" style="fill: #00994c; stroke: #00994c"/>
     <use xlink:href="#mf030f36d2d" x="315.125002" y="152.516607" style="fill: #00994c; stroke: #00994c"/>
     <use xlink:href="#mf030f36d2d" x="320.734574" y="147.537643" style="fill: #00994c; stroke: #00994c"/>
     <use xlink:href="#mf030f36d2d" x="329.07274" y="142.230958" style="fill: #00994c; stroke: #00994c"/>
     <use xlink:href="#mf030f36d2d" x="334.823124" y="137.62056" style="fill: #00994c; stroke: #00994c"/>
     <use xlink:href="#mf030f36d2d" x="342.279652" y="132.58031" style="fill: #00994c; stroke: #00994c"/>
     <use xlink:href="#mf030f36d2d" x="348.305628" y="127.583077" style="fill: #00994c; stroke: #00994c"/>
     <use xlink:href="#mf030f36d2d" x="326.722696" y="136.774766" style="fill: #00994c; stroke: #00994c"/>
     <use xlink:href="#mf030f36d2d" x="305.139765" y="136.774766" style="fill: #00994c; stroke: #00994c"/>
     <use xlink:href="#mf030f36d2d" x="282.388685" y="138.488649" style="fill: #00994c; stroke: #00994c"/>
     <use xlink:href="#mf030f36d2d" x="260.175679" y="138.372117" style="fill: #00994c; stroke: #00994c"/>
     <use xlink:href="#mf030f36d2d" x="240.314088" y="136.870159" style="fill: #00994c; stroke: #00994c"/>
     <use xlink:href="#mf030f36d2d" x="197.225106" y="120.604766" style="fill: #00994c; stroke: #00994c"/>
     <use xlink:href="#mf030f36d2d" x="169.325106" y="98.901836" style="fill: #00994c; stroke: #00994c"/>
     <use xlink:href="#mf030f36d2d" x="141.425106" y="77.198906" style="fill: #00994c; stroke: #00994c"/>
     <use xlink:href="#mf030f36d2d" x="113.525106" y="55.495976" style="fill: #00994c; stroke: #00994c"/>
     <use xlink:href="#mf030f36d2d" x="85.625106" y="33.793047" style="fill: #00994c; stroke: #00994c"/>
     <use xlink:href="#mf030f36d2d" x="85.625106" y="64.091391" style="fill: #00994c; stroke: #00994c"/>
     <use xlink:href="#mf030f36d2d" x="85.625106" y="94.389734" style="fill: #00994c; stroke: #00994c"/>
     <use xlink:href="#mf030f36d2d" x="85.625106" y="124.688078" style="fill: #00994c; stroke: #00994c"/>
     <use xlink:href="#mf030f36d2d" x="85.625106" y="154.986422" style="fill: #00994c; stroke: #00994c"/>
     <use xlink:href="#mf030f36d2d" x="85.625106" y="185.284766" style="fill: #00994c; stroke: #00994c"/>
     <use xlink:href="#mf030f36d2d" x="85.625106" y="185.284766" style="fill: #00994c; stroke: #00994c"/>
     <use xlink:href="#mf030f36d2d" x="85.625106" y="185.284766" style="fill: #00994c; stroke: #00994c"/>
     <use xlink:href="#mf030f36d2d" x="85.625106" y="185.284766" style="fill: #00994c; stroke: #00994c"/>
     <use xlink:href="#mf030f36d2d" x="85.625106" y="185.284766" style="fill: #00994c; stroke: #00994c"/>
     <use xlink:href="#mf030f36d2d" x="85.625106" y="185.284766" style="fill: #00994c; stroke: #00994c"/>
     <use xlink:href="#mf030f36d2d" x="85.625106" y="185.284766" style="fill: #00994c; stroke: #00994c"/>
     <use xlink:href="#mf030f36d2d" x="85.625106" y="185.284766" style="fill: #00994c; stroke: #00994c"/>
     <use xlink:href="#mf030f36d2d" x="85.625106" y="185.284766" style="fill: #00994c; stroke: #00994c"/>
     <use xlink:href="#mf030f36d2d" x="85.625106" y="185.284766" style="fill: #00994c; stroke: #00994c"/>
     <use xlink:href="#mf030f36d2d" x="85.625106" y="185.284766" style="fill: #00994c; stroke: #00994c"/>
    </g>
   </g>
   <g id="line2d_20">
    <path d="M 279.459687 174.218906 
L 281.245062 173.901678 
L 281.341384 175.249252 
L 281.0645 175.505794 
L 280.981909 175.959206 
L 280.938171 176.304304 
L 286.42814 170.723402 
L 294.163944 164.637328 
L 301.031727 160.286208 
L 307.302929 156.702246 
L 315.125002 152.516607 
L 320.734574 147.537643 
L 329.07274 142.230958 
L 334.823124 137.62056 
L 342.279652 132.58031 
L 348.305628 127.583077 
L 327.466397 135.345752 
L 304.181973 136.681921 
L 282.388685 138.488649 
L 260.175679 138.372117 
L 240.314088 136.870159 
L 195.604774 120.137126 
L 167.754234 121.865309 
L 139.782294 92.933527 
L 111.831407 63.341799 
L 83.380938 33.986677 
L 85.77925 63.548655 
L 86.885422 93.173201 
L 88.370259 124.685749 
L 89.214553 156.330949 
L 88.612765 186.669206 
L 89.659006 185.704721 
L 89.46195 184.421396 
L 88.910237 185.105616 
L 89.525669 186.24545 
L 89.962819 184.843289 
L 88.669579 185.05952 
L 88.515353 183.779824 
L 88.998262 183.290822 
L 89.640255 183.110697 
L 88.24703 182.104323 
" clip-path="url(#p284d3d0f2d)" style="fill: none; stroke: #0000ff; stroke-width: 2; stroke-linecap: square"/>
    <defs>
     <path id="m1575adf337" d="M 0 2 
C 0.530406 2 1.03916 1.789267 1.414214 1.414214 
C 1.789267 1.03916 2 0.530406 2 0 
C 2 -0.530406 1.789267 -1.03916 1.414214 -1.414214 
C 1.03916 -1.789267 0.530406 -2 0 -2 
C -0.530406 -2 -1.03916 -1.789267 -1.414214 -1.414214 
C -1.789267 -1.03916 -2 -0.530406 -2 0 
C -2 0.530406 -1.789267 1.03916 -1.414214 1.414214 
C -1.03916 1.789267 -0.530406 2 0 2 
z
" style="stroke: #0000ff"/>
    </defs>
    <g clip-path="url(#p284d3d0f2d)">
     <use xlink:href="#m1575adf337" x="279.459687" y="174.218906" style="fill: #0000ff; stroke: #0000ff"/>
     <use xlink:href="#m1575adf337" x="281.245062" y="173.901678" style="fill: #0000ff; stroke: #0000ff"/>
     <use xlink:href="#m1575adf337" x="281.341384" y="175.249252" style="fill: #0000ff; stroke: #0000ff"/>
     <use xlink:href="#m1575adf337" x="281.0645" y="175.505794" style="fill: #0000ff; stroke: #0000ff"/>
     <use xlink:href="#m1575adf337" x="280.981909" y="175.959206" style="fill: #0000ff; stroke: #0000ff"/>
     <use xlink:href="#m1575adf337" x="280.938171" y="176.304304" style="fill: #0000ff; stroke: #0000ff"/>
     <use xlink:href="#m1575adf337" x="286.42814" y="170.723402" style="fill: #0000ff; stroke: #0000ff"/>
     <use xlink:href="#m1575adf337" x="294.163944" y="164.637328" style="fill: #0000ff; stroke: #0000ff"/>
     <use xlink:href="#m1575adf337" x="301.031727" y="160.286208" style="fill: #0000ff; stroke: #0000ff"/>
     <use xlink:href="#m1575adf337" x="307.302929" y="156.702246" style="fill: #0000ff; stroke: #0000ff"/>
     <use xlink:href="#m1575adf337" x="315.125002" y="152.516607" style="fill: #0000ff; stroke: #0000ff"/>
     <use xlink:href="#m1575adf337" x="320.734574" y="147.537643" style="fill: #0000ff; stroke: #0000ff"/>
     <use xlink:href="#m1575adf337" x="329.07274" y="142.230958" style="fill: #0000ff; stroke: #0000ff"/>
     <use xlink:href="#m1575adf337" x="334.823124" y="137.62056" style="fill: #0000ff; stroke: #0000ff"/>
     <use xlink:href="#m1575adf337" x="342.279652" y="132.58031" style="fill: #0000ff; stroke: #0000ff"/>
     <use xlink:href="#m1575adf337" x="348.305628" y="127.583077" style="fill: #0000ff; stroke: #0000ff"/>
     <use xlink:href="#m1575adf337" x="327.466397" y="135.345752" style="fill: #0000ff; stroke: #0000ff"/>
     <use xlink:href="#m1575adf337" x="304.181973" y="136.681921" style="fill: #0000ff; stroke: #0000ff"/>
     <use xlink:href="#m1575adf337" x="282.388685" y="138.488649" style="fill: #0000ff; stroke: #0000ff"/>
     <use xlink:href="#m1575adf337" x="260.175679" y="138.372117" style="fill: #0000ff; stroke: #0000ff"/>
     <use xlink:href="#m1575adf337" x="240.314088" y="136.870159" style="fill: #0000ff; stroke: #0000ff"/>
     <use xlink:href="#m1575adf337" x="195.604774" y="120.137126" style="fill: #0000ff; stroke: #0000ff"/>
     <use xlink:href="#m1575adf337" x="167.754234" y="121.865309" style="fill: #0000ff; stroke: #0000ff"/>
     <use xlink:href="#m1575adf337" x="139.782294" y="92.933527" style="fill: #0000ff; stroke: #0000ff"/>
     <use xlink:href="#m1575adf337" x="111.831407" y="63.341799" style="fill: #0000ff; stroke: #0000ff"/>
     <use xlink:href="#m1575adf337" x="83.380938" y="33.986677" style="fill: #0000ff; stroke: #0000ff"/>
     <use xlink:href="#m1575adf337" x="85.77925" y="63.548655" style="fill: #0000ff; stroke: #0000ff"/>
     <use xlink:href="#m1575adf337" x="86.885422" y="93.173201" style="fill: #0000ff; stroke: #0000ff"/>
     <use xlink:href="#m1575adf337" x="88.370259" y="124.685749" style="fill: #0000ff; stroke: #0000ff"/>
     <use xlink:href="#m1575adf337" x="89.214553" y="156.330949" style="fill: #0000ff; stroke: #0000ff"/>
     <use xlink:href="#m1575adf337" x="88.612765" y="186.669206" style="fill: #0000ff; stroke: #0000ff"/>
     <use xlink:href="#m1575adf337" x="89.659006" y="185.704721" style="fill: #0000ff; stroke: #0000ff"/>
     <use xlink:href="#m1575adf337" x="89.46195" y="184.421396" style="fill: #0000ff; stroke: #0000ff"/>
     <use xlink:href="#m1575adf337" x="88.910237" y="185.105616" style="fill: #0000ff; stroke: #0000ff"/>
     <use xlink:href="#m1575adf337" x="89.525669" y="186.24545" style="fill: #0000ff; stroke: #0000ff"/>
     <use xlink:href="#m1575adf337" x="89.962819" y="184.843289" style="fill: #0000ff; stroke: #0000ff"/>
     <use xlink:href="#m1575adf337" x="88.669579" y="185.05952" style="fill: #0000ff; stroke: #0000ff"/>
     <use xlink:href="#m1575adf337" x="88.515353" y="183.779824" style="fill: #0000ff; stroke: #0000ff"/>
     <use xlink:href="#m1575adf337" x="88.998262" y="183.290822" style="fill: #0000ff; stroke: #0000ff"/>
     <use xlink:href="#m1575adf337" x="89.640255" y="183.110697" style="fill: #0000ff; stroke: #0000ff"/>
     <use xlink:href="#m1575adf337" x="88.24703" y="182.104323" style="fill: #0000ff; stroke: #0000ff"/>
    </g>
   </g>
   <g id="patch_9">
    <path d="M 56.259687 206.558906 
L 56.259687 12.518906 
" style="fill: none; stroke: #000000; stroke-width: 0.8; stroke-linejoin: miter; stroke-linecap: square"/>
   </g>
   <g id="patch_10">
    <path d="M 502.659687 206.558906 
L 502.659687 12.518906 
" style="fill: none; stroke: #000000; stroke-width: 0.8; stroke-linejoin: miter; stroke-linecap: square"/>
   </g>
   <g id="patch_11">
    <path d="M 56.259687 206.558906 
L 502.659687 206.558906 
" style="fill: none; stroke: #000000; stroke-width: 0.8; stroke-linejoin: miter; stroke-linecap: square"/>
   </g>
   <g id="patch_12">
    <path d="M 56.259687 12.518906 
L 502.659687 12.518906 
" style="fill: none; stroke: #000000; stroke-width: 0.8; stroke-linejoin: miter; stroke-linecap: square"/>
   </g>
   <g id="text_19">
    <!-- TARGET -->
    <g transform="translate(56.90625 32.731406) scale(0.1 -0.1)">
     <defs>
      <path id="DejaVuSans-Bold-54" d="M 31 4666 
L 4331 4666 
L 4331 3756 
L 2784 3756 
L 2784 0 
L 1581 0 
L 1581 3756 
L 31 3756 
L 31 4666 
z
" transform="scale(0.015625)"/>
      <path id="DejaVuSans-Bold-41" d="M 3419 850 
L 1538 850 
L 1241 0 
L 31 0 
L 1759 4666 
L 3194 4666 
L 4922 0 
L 3713 0 
L 3419 850 
z
M 1838 1716 
L 3116 1716 
L 2478 3572 
L 1838 1716 
z
" transform="scale(0.015625)"/>
      <path id="DejaVuSans-Bold-52" d="M 2297 2597 
Q 2675 2597 2839 2737 
Q 3003 2878 3003 3200 
Q 3003 3519 2839 3656 
Q 2675 3794 2297 3794 
L 1791 3794 
L 1791 2597 
L 2297 2597 
z
M 1791 1766 
L 1791 0 
L 588 0 
L 588 4666 
L 2425 4666 
Q 3347 4666 3776 4356 
Q 4206 4047 4206 3378 
Q 4206 2916 3982 2619 
Q 3759 2322 3309 2181 
Q 3556 2125 3751 1926 
Q 3947 1728 4147 1325 
L 4800 0 
L 3519 0 
L 2950 1159 
Q 2778 1509 2601 1637 
Q 2425 1766 2131 1766 
L 1791 1766 
z
" transform="scale(0.015625)"/>
      <path id="DejaVuSans-Bold-47" d="M 4781 347 
Q 4331 128 3847 18 
Q 3363 -91 2847 -91 
Q 1681 -91 1000 561 
Q 319 1213 319 2328 
Q 319 3456 1012 4103 
Q 1706 4750 2913 4750 
Q 3378 4750 3804 4662 
Q 4231 4575 4609 4403 
L 4609 3438 
Q 4219 3659 3833 3768 
Q 3447 3878 3059 3878 
Q 2341 3878 1952 3476 
Q 1563 3075 1563 2328 
Q 1563 1588 1938 1184 
Q 2313 781 3003 781 
Q 3191 781 3352 804 
Q 3513 828 3641 878 
L 3641 1784 
L 2906 1784 
L 2906 2591 
L 4781 2591 
L 4781 347 
z
" transform="scale(0.015625)"/>
      <path id="DejaVuSans-Bold-45" d="M 588 4666 
L 3834 4666 
L 3834 3756 
L 1791 3756 
L 1791 2888 
L 3713 2888 
L 3713 1978 
L 1791 1978 
L 1791 909 
L 3903 909 
L 3903 0 
L 588 0 
L 588 4666 
z
" transform="scale(0.015625)"/>
     </defs>
     <use xlink:href="#DejaVuSans-Bold-54"/>
     <use xlink:href="#DejaVuSans-Bold-41" x="60.462891"/>
     <use xlink:href="#DejaVuSans-Bold-52" x="137.855469"/>
     <use xlink:href="#DejaVuSans-Bold-47" x="214.857422"/>
     <use xlink:href="#DejaVuSans-Bold-45" x="296.9375"/>
     <use xlink:href="#DejaVuSans-Bold-54" x="365.248047"/>
    </g>
   </g>
   <g id="text_20">
    <!-- TARGET -->
    <g transform="translate(436.34625 48.901406) scale(0.1 -0.1)">
     <use xlink:href="#DejaVuSans-Bold-54"/>
     <use xlink:href="#DejaVuSans-Bold-41" x="60.462891"/>
     <use xlink:href="#DejaVuSans-Bold-52" x="137.855469"/>
     <use xlink:href="#DejaVuSans-Bold-47" x="214.857422"/>
     <use xlink:href="#DejaVuSans-Bold-45" x="296.9375"/>
     <use xlink:href="#DejaVuSans-Bold-54" x="365.248047"/>
    </g>
   </g>
   <g id="text_21">
    <!-- HOME -->
    <g transform="translate(262.633125 194.431406) scale(0.1 -0.1)">
     <defs>
      <path id="DejaVuSans-Bold-48" d="M 588 4666 
L 1791 4666 
L 1791 2888 
L 3566 2888 
L 3566 4666 
L 4769 4666 
L 4769 0 
L 3566 0 
L 3566 1978 
L 1791 1978 
L 1791 0 
L 588 0 
L 588 4666 
z
" transform="scale(0.015625)"/>
      <path id="DejaVuSans-Bold-4f" d="M 2719 3878 
Q 2169 3878 1866 3472 
Q 1563 3066 1563 2328 
Q 1563 1594 1866 1187 
Q 2169 781 2719 781 
Q 3272 781 3575 1187 
Q 3878 1594 3878 2328 
Q 3878 3066 3575 3472 
Q 3272 3878 2719 3878 
z
M 2719 4750 
Q 3844 4750 4481 4106 
Q 5119 3463 5119 2328 
Q 5119 1197 4481 553 
Q 3844 -91 2719 -91 
Q 1597 -91 958 553 
Q 319 1197 319 2328 
Q 319 3463 958 4106 
Q 1597 4750 2719 4750 
z
" transform="scale(0.015625)"/>
      <path id="DejaVuSans-Bold-4d" d="M 588 4666 
L 2119 4666 
L 3181 2169 
L 4250 4666 
L 5778 4666 
L 5778 0 
L 4641 0 
L 4641 3413 
L 3566 897 
L 2803 897 
L 1728 3413 
L 1728 0 
L 588 0 
L 588 4666 
z
" transform="scale(0.015625)"/>
     </defs>
     <use xlink:href="#DejaVuSans-Bold-48"/>
     <use xlink:href="#DejaVuSans-Bold-4f" x="83.691406"/>
     <use xlink:href="#DejaVuSans-Bold-4d" x="168.701172"/>
     <use xlink:href="#DejaVuSans-Bold-45" x="268.212891"/>
    </g>
   </g>
   <g id="text_22">
    <!-- CHARGER -->
    <g transform="translate(129.756719 128.942906) scale(0.1 -0.1)">
     <defs>
      <path id="DejaVuSans-Bold-43" d="M 4288 256 
Q 3956 84 3597 -3 
Q 3238 -91 2847 -91 
Q 1681 -91 1000 561 
Q 319 1213 319 2328 
Q 319 3447 1000 4098 
Q 1681 4750 2847 4750 
Q 3238 4750 3597 4662 
Q 3956 4575 4288 4403 
L 4288 3438 
Q 3953 3666 3628 3772 
Q 3303 3878 2944 3878 
Q 2300 3878 1931 3465 
Q 1563 3053 1563 2328 
Q 1563 1606 1931 1193 
Q 2300 781 2944 781 
Q 3303 781 3628 887 
Q 3953 994 4288 1222 
L 4288 256 
z
" transform="scale(0.015625)"/>
     </defs>
     <use xlink:href="#DejaVuSans-Bold-43"/>
     <use xlink:href="#DejaVuSans-Bold-48" x="73.388672"/>
     <use xlink:href="#DejaVuSans-Bold-41" x="157.080078"/>
     <use xlink:href="#DejaVuSans-Bold-52" x="234.472656"/>
     <use xlink:href="#DejaVuSans-Bold-47" x="311.474609"/>
     <use xlink:href="#DejaVuSans-Bold-45" x="393.554688"/>
     <use xlink:href="#DejaVuSans-Bold-52" x="461.865234"/>
    </g>
   </g>
   <g id="text_23">
    <!-- OBSTACLE -->
    <g transform="translate(250.633125 72.347906) scale(0.1 -0.1)">
     <defs>
      <path id="DejaVuSans-Bold-42" d="M 2456 2859 
Q 2741 2859 2887 2984 
Q 3034 3109 3034 3353 
Q 3034 3594 2887 3720 
Q 2741 3847 2456 3847 
L 1791 3847 
L 1791 2859 
L 2456 2859 
z
M 2497 819 
Q 2859 819 3042 972 
Q 3225 1125 3225 1434 
Q 3225 1738 3044 1889 
Q 2863 2041 2497 2041 
L 1791 2041 
L 1791 819 
L 2497 819 
z
M 3616 2497 
Q 4003 2384 4215 2081 
Q 4428 1778 4428 1338 
Q 4428 663 3972 331 
Q 3516 0 2584 0 
L 588 0 
L 588 4666 
L 2394 4666 
Q 3366 4666 3802 4372 
Q 4238 4078 4238 3431 
Q 4238 3091 4078 2852 
Q 3919 2613 3616 2497 
z
" transform="scale(0.015625)"/>
      <path id="DejaVuSans-Bold-53" d="M 3834 4519 
L 3834 3531 
Q 3450 3703 3084 3790 
Q 2719 3878 2394 3878 
Q 1963 3878 1756 3759 
Q 1550 3641 1550 3391 
Q 1550 3203 1689 3098 
Q 1828 2994 2194 2919 
L 2706 2816 
Q 3484 2659 3812 2340 
Q 4141 2022 4141 1434 
Q 4141 663 3683 286 
Q 3225 -91 2284 -91 
Q 1841 -91 1394 -6 
Q 947 78 500 244 
L 500 1259 
Q 947 1022 1364 901 
Q 1781 781 2169 781 
Q 2563 781 2772 912 
Q 2981 1044 2981 1288 
Q 2981 1506 2839 1625 
Q 2697 1744 2272 1838 
L 1806 1941 
Q 1106 2091 782 2419 
Q 459 2747 459 3303 
Q 459 4000 909 4375 
Q 1359 4750 2203 4750 
Q 2588 4750 2994 4692 
Q 3400 4634 3834 4519 
z
" transform="scale(0.015625)"/>
      <path id="DejaVuSans-Bold-4c" d="M 588 4666 
L 1791 4666 
L 1791 909 
L 3903 909 
L 3903 0 
L 588 0 
L 588 4666 
z
" transform="scale(0.015625)"/>
     </defs>
     <use xlink:href="#DejaVuSans-Bold-4f"/>
     <use xlink:href="#DejaVuSans-Bold-42" x="85.009766"/>
     <use xlink:href="#DejaVuSans-Bold-53" x="161.230469"/>
     <use xlink:href="#DejaVuSans-Bold-54" x="233.251953"/>
     <use xlink:href="#DejaVuSans-Bold-41" x="293.714844"/>
     <use xlink:href="#DejaVuSans-Bold-43" x="371.107422"/>
     <use xlink:href="#DejaVuSans-Bold-4c" x="444.496094"/>
     <use xlink:href="#DejaVuSans-Bold-45" x="508.216797"/>
    </g>
   </g>
   <g id="legend_1">
    <g id="patch_13">
     <path d="M 344.322187 201.558906 
L 495.659688 201.558906 
Q 497.659688 201.558906 497.659688 199.558906 
L 497.659688 141.846406 
Q 497.659688 139.846406 495.659688 139.846406 
L 344.322187 139.846406 
Q 342.322187 139.846406 342.322187 141.846406 
L 342.322187 199.558906 
Q 342.322187 201.558906 344.322187 201.558906 
z
" style="fill: #ffffff; opacity: 0.8; stroke: #cccccc; stroke-linejoin: miter"/>
    </g>
    <g id="line2d_21">
     <path d="M 346.322187 147.944844 
L 356.322187 147.944844 
L 366.322187 147.944844 
" style="fill: none; stroke: #ff0000; stroke-width: 2; stroke-linecap: square"/>
     <g>
      <use xlink:href="#m782133fc43" x="356.322187" y="147.944844" style="fill: #ff0000; stroke: #ff0000"/>
     </g>
    </g>
    <g id="text_24">
     <!-- Traj. planned at time 5 -->
     <g transform="translate(374.322187 151.444844) scale(0.1 -0.1)">
      <defs>
       <path id="DejaVuSans-54" d="M -19 4666 
L 3928 4666 
L 3928 4134 
L 2272 4134 
L 2272 0 
L 1638 0 
L 1638 4134 
L -19 4134 
L -19 4666 
z
" transform="scale(0.015625)"/>
       <path id="DejaVuSans-72" d="M 2631 2963 
Q 2534 3019 2420 3045 
Q 2306 3072 2169 3072 
Q 1681 3072 1420 2755 
Q 1159 2438 1159 1844 
L 1159 0 
L 581 0 
L 581 3500 
L 1159 3500 
L 1159 2956 
Q 1341 3275 1631 3429 
Q 1922 3584 2338 3584 
Q 2397 3584 2469 3576 
Q 2541 3569 2628 3553 
L 2631 2963 
z
" transform="scale(0.015625)"/>
       <path id="DejaVuSans-61" d="M 2194 1759 
Q 1497 1759 1228 1600 
Q 959 1441 959 1056 
Q 959 750 1161 570 
Q 1363 391 1709 391 
Q 2188 391 2477 730 
Q 2766 1069 2766 1631 
L 2766 1759 
L 2194 1759 
z
M 3341 1997 
L 3341 0 
L 2766 0 
L 2766 531 
Q 2569 213 2275 61 
Q 1981 -91 1556 -91 
Q 1019 -91 701 211 
Q 384 513 384 1019 
Q 384 1609 779 1909 
Q 1175 2209 1959 2209 
L 2766 2209 
L 2766 2266 
Q 2766 2663 2505 2880 
Q 2244 3097 1772 3097 
Q 1472 3097 1187 3025 
Q 903 2953 641 2809 
L 641 3341 
Q 956 3463 1253 3523 
Q 1550 3584 1831 3584 
Q 2591 3584 2966 3190 
Q 3341 2797 3341 1997 
z
" transform="scale(0.015625)"/>
       <path id="DejaVuSans-6a" d="M 603 3500 
L 1178 3500 
L 1178 -63 
Q 1178 -731 923 -1031 
Q 669 -1331 103 -1331 
L -116 -1331 
L -116 -844 
L 38 -844 
Q 366 -844 484 -692 
Q 603 -541 603 -63 
L 603 3500 
z
M 603 4863 
L 1178 4863 
L 1178 4134 
L 603 4134 
L 603 4863 
z
" transform="scale(0.015625)"/>
       <path id="DejaVuSans-20" transform="scale(0.015625)"/>
       <path id="DejaVuSans-70" d="M 1159 525 
L 1159 -1331 
L 581 -1331 
L 581 3500 
L 1159 3500 
L 1159 2969 
Q 1341 3281 1617 3432 
Q 1894 3584 2278 3584 
Q 2916 3584 3314 3078 
Q 3713 2572 3713 1747 
Q 3713 922 3314 415 
Q 2916 -91 2278 -91 
Q 1894 -91 1617 61 
Q 1341 213 1159 525 
z
M 3116 1747 
Q 3116 2381 2855 2742 
Q 2594 3103 2138 3103 
Q 1681 3103 1420 2742 
Q 1159 2381 1159 1747 
Q 1159 1113 1420 752 
Q 1681 391 2138 391 
Q 2594 391 2855 752 
Q 3116 1113 3116 1747 
z
" transform="scale(0.015625)"/>
       <path id="DejaVuSans-6c" d="M 603 4863 
L 1178 4863 
L 1178 0 
L 603 0 
L 603 4863 
z
" transform="scale(0.015625)"/>
       <path id="DejaVuSans-6e" d="M 3513 2113 
L 3513 0 
L 2938 0 
L 2938 2094 
Q 2938 2591 2744 2837 
Q 2550 3084 2163 3084 
Q 1697 3084 1428 2787 
Q 1159 2491 1159 1978 
L 1159 0 
L 581 0 
L 581 3500 
L 1159 3500 
L 1159 2956 
Q 1366 3272 1645 3428 
Q 1925 3584 2291 3584 
Q 2894 3584 3203 3211 
Q 3513 2838 3513 2113 
z
" transform="scale(0.015625)"/>
       <path id="DejaVuSans-65" d="M 3597 1894 
L 3597 1613 
L 953 1613 
Q 991 1019 1311 708 
Q 1631 397 2203 397 
Q 2534 397 2845 478 
Q 3156 559 3463 722 
L 3463 178 
Q 3153 47 2828 -22 
Q 2503 -91 2169 -91 
Q 1331 -91 842 396 
Q 353 884 353 1716 
Q 353 2575 817 3079 
Q 1281 3584 2069 3584 
Q 2775 3584 3186 3129 
Q 3597 2675 3597 1894 
z
M 3022 2063 
Q 3016 2534 2758 2815 
Q 2500 3097 2075 3097 
Q 1594 3097 1305 2825 
Q 1016 2553 972 2059 
L 3022 2063 
z
" transform="scale(0.015625)"/>
       <path id="DejaVuSans-64" d="M 2906 2969 
L 2906 4863 
L 3481 4863 
L 3481 0 
L 2906 0 
L 2906 525 
Q 2725 213 2448 61 
Q 2172 -91 1784 -91 
Q 1150 -91 751 415 
Q 353 922 353 1747 
Q 353 2572 751 3078 
Q 1150 3584 1784 3584 
Q 2172 3584 2448 3432 
Q 2725 3281 2906 2969 
z
M 947 1747 
Q 947 1113 1208 752 
Q 1469 391 1925 391 
Q 2381 391 2643 752 
Q 2906 1113 2906 1747 
Q 2906 2381 2643 2742 
Q 2381 3103 1925 3103 
Q 1469 3103 1208 2742 
Q 947 2381 947 1747 
z
" transform="scale(0.015625)"/>
       <path id="DejaVuSans-74" d="M 1172 4494 
L 1172 3500 
L 2356 3500 
L 2356 3053 
L 1172 3053 
L 1172 1153 
Q 1172 725 1289 603 
Q 1406 481 1766 481 
L 2356 481 
L 2356 0 
L 1766 0 
Q 1100 0 847 248 
Q 594 497 594 1153 
L 594 3053 
L 172 3053 
L 172 3500 
L 594 3500 
L 594 4494 
L 1172 4494 
z
" transform="scale(0.015625)"/>
       <path id="DejaVuSans-69" d="M 603 3500 
L 1178 3500 
L 1178 0 
L 603 0 
L 603 3500 
z
M 603 4863 
L 1178 4863 
L 1178 4134 
L 603 4134 
L 603 4863 
z
" transform="scale(0.015625)"/>
       <path id="DejaVuSans-6d" d="M 3328 2828 
Q 3544 3216 3844 3400 
Q 4144 3584 4550 3584 
Q 5097 3584 5394 3201 
Q 5691 2819 5691 2113 
L 5691 0 
L 5113 0 
L 5113 2094 
Q 5113 2597 4934 2840 
Q 4756 3084 4391 3084 
Q 3944 3084 3684 2787 
Q 3425 2491 3425 1978 
L 3425 0 
L 2847 0 
L 2847 2094 
Q 2847 2600 2669 2842 
Q 2491 3084 2119 3084 
Q 1678 3084 1418 2786 
Q 1159 2488 1159 1978 
L 1159 0 
L 581 0 
L 581 3500 
L 1159 3500 
L 1159 2956 
Q 1356 3278 1631 3431 
Q 1906 3584 2284 3584 
Q 2666 3584 2933 3390 
Q 3200 3197 3328 2828 
z
" transform="scale(0.015625)"/>
      </defs>
      <use xlink:href="#DejaVuSans-54"/>
      <use xlink:href="#DejaVuSans-72" x="46.333984"/>
      <use xlink:href="#DejaVuSans-61" x="87.447266"/>
      <use xlink:href="#DejaVuSans-6a" x="148.726562"/>
      <use xlink:href="#DejaVuSans-2e" x="176.509766"/>
      <use xlink:href="#DejaVuSans-20" x="208.296875"/>
      <use xlink:href="#DejaVuSans-70" x="240.083984"/>
      <use xlink:href="#DejaVuSans-6c" x="303.560547"/>
      <use xlink:href="#DejaVuSans-61" x="331.34375"/>
      <use xlink:href="#DejaVuSans-6e" x="392.623047"/>
      <use xlink:href="#DejaVuSans-6e" x="456.001953"/>
      <use xlink:href="#DejaVuSans-65" x="519.380859"/>
      <use xlink:href="#DejaVuSans-64" x="580.904297"/>
      <use xlink:href="#DejaVuSans-20" x="644.380859"/>
      <use xlink:href="#DejaVuSans-61" x="676.167969"/>
      <use xlink:href="#DejaVuSans-74" x="737.447266"/>
      <use xlink:href="#DejaVuSans-20" x="776.65625"/>
      <use xlink:href="#DejaVuSans-74" x="808.443359"/>
      <use xlink:href="#DejaVuSans-69" x="847.652344"/>
      <use xlink:href="#DejaVuSans-6d" x="875.435547"/>
      <use xlink:href="#DejaVuSans-65" x="972.847656"/>
      <use xlink:href="#DejaVuSans-20" x="1034.371094"/>
      <use xlink:href="#DejaVuSans-35" x="1066.158203"/>
     </g>
    </g>
    <g id="line2d_22">
     <path d="M 346.322187 162.622969 
L 356.322187 162.622969 
L 366.322187 162.622969 
" style="fill: none; stroke: #ff9900; stroke-width: 2; stroke-linecap: square"/>
     <g>
      <use xlink:href="#m6655f99036" x="356.322187" y="162.622969" style="fill: #ff9900; stroke: #ff9900"/>
     </g>
    </g>
    <g id="text_25">
     <!-- Traj. planned at time 15 -->
     <g transform="translate(374.322187 166.122969) scale(0.1 -0.1)">
      <use xlink:href="#DejaVuSans-54"/>
      <use xlink:href="#DejaVuSans-72" x="46.333984"/>
      <use xlink:href="#DejaVuSans-61" x="87.447266"/>
      <use xlink:href="#DejaVuSans-6a" x="148.726562"/>
      <use xlink:href="#DejaVuSans-2e" x="176.509766"/>
      <use xlink:href="#DejaVuSans-20" x="208.296875"/>
      <use xlink:href="#DejaVuSans-70" x="240.083984"/>
      <use xlink:href="#DejaVuSans-6c" x="303.560547"/>
      <use xlink:href="#DejaVuSans-61" x="331.34375"/>
      <use xlink:href="#DejaVuSans-6e" x="392.623047"/>
      <use xlink:href="#DejaVuSans-6e" x="456.001953"/>
      <use xlink:href="#DejaVuSans-65" x="519.380859"/>
      <use xlink:href="#DejaVuSans-64" x="580.904297"/>
      <use xlink:href="#DejaVuSans-20" x="644.380859"/>
      <use xlink:href="#DejaVuSans-61" x="676.167969"/>
      <use xlink:href="#DejaVuSans-74" x="737.447266"/>
      <use xlink:href="#DejaVuSans-20" x="776.65625"/>
      <use xlink:href="#DejaVuSans-74" x="808.443359"/>
      <use xlink:href="#DejaVuSans-69" x="847.652344"/>
      <use xlink:href="#DejaVuSans-6d" x="875.435547"/>
      <use xlink:href="#DejaVuSans-65" x="972.847656"/>
      <use xlink:href="#DejaVuSans-20" x="1034.371094"/>
      <use xlink:href="#DejaVuSans-31" x="1066.158203"/>
      <use xlink:href="#DejaVuSans-35" x="1129.78125"/>
     </g>
    </g>
    <g id="line2d_23">
     <path d="M 346.322187 177.301094 
L 356.322187 177.301094 
L 366.322187 177.301094 
" style="fill: none; stroke: #00994c; stroke-width: 2; stroke-linecap: square"/>
     <g>
      <use xlink:href="#mf030f36d2d" x="356.322187" y="177.301094" style="fill: #00994c; stroke: #00994c"/>
     </g>
    </g>
    <g id="text_26">
     <!-- Traj. planned at time 20 -->
     <g transform="translate(374.322187 180.801094) scale(0.1 -0.1)">
      <use xlink:href="#DejaVuSans-54"/>
      <use xlink:href="#DejaVuSans-72" x="46.333984"/>
      <use xlink:href="#DejaVuSans-61" x="87.447266"/>
      <use xlink:href="#DejaVuSans-6a" x="148.726562"/>
      <use xlink:href="#DejaVuSans-2e" x="176.509766"/>
      <use xlink:href="#DejaVuSans-20" x="208.296875"/>
      <use xlink:href="#DejaVuSans-70" x="240.083984"/>
      <use xlink:href="#DejaVuSans-6c" x="303.560547"/>
      <use xlink:href="#DejaVuSans-61" x="331.34375"/>
      <use xlink:href="#DejaVuSans-6e" x="392.623047"/>
      <use xlink:href="#DejaVuSans-6e" x="456.001953"/>
      <use xlink:href="#DejaVuSans-65" x="519.380859"/>
      <use xlink:href="#DejaVuSans-64" x="580.904297"/>
      <use xlink:href="#DejaVuSans-20" x="644.380859"/>
      <use xlink:href="#DejaVuSans-61" x="676.167969"/>
      <use xlink:href="#DejaVuSans-74" x="737.447266"/>
      <use xlink:href="#DejaVuSans-20" x="776.65625"/>
      <use xlink:href="#DejaVuSans-74" x="808.443359"/>
      <use xlink:href="#DejaVuSans-69" x="847.652344"/>
      <use xlink:href="#DejaVuSans-6d" x="875.435547"/>
      <use xlink:href="#DejaVuSans-65" x="972.847656"/>
      <use xlink:href="#DejaVuSans-20" x="1034.371094"/>
      <use xlink:href="#DejaVuSans-32" x="1066.158203"/>
      <use xlink:href="#DejaVuSans-30" x="1129.78125"/>
     </g>
    </g>
    <g id="line2d_24">
     <path d="M 346.322187 191.979219 
L 356.322187 191.979219 
L 366.322187 191.979219 
" style="fill: none; stroke: #0000ff; stroke-width: 2; stroke-linecap: square"/>
     <g>
      <use xlink:href="#m1575adf337" x="356.322187" y="191.979219" style="fill: #0000ff; stroke: #0000ff"/>
     </g>
    </g>
    <g id="text_27">
     <!-- Traj. based on meas. -->
     <g transform="translate(374.322187 195.479219) scale(0.1 -0.1)">
      <defs>
       <path id="DejaVuSans-62" d="M 3116 1747 
Q 3116 2381 2855 2742 
Q 2594 3103 2138 3103 
Q 1681 3103 1420 2742 
Q 1159 2381 1159 1747 
Q 1159 1113 1420 752 
Q 1681 391 2138 391 
Q 2594 391 2855 752 
Q 3116 1113 3116 1747 
z
M 1159 2969 
Q 1341 3281 1617 3432 
Q 1894 3584 2278 3584 
Q 2916 3584 3314 3078 
Q 3713 2572 3713 1747 
Q 3713 922 3314 415 
Q 2916 -91 2278 -91 
Q 1894 -91 1617 61 
Q 1341 213 1159 525 
L 1159 0 
L 581 0 
L 581 4863 
L 1159 4863 
L 1159 2969 
z
" transform="scale(0.015625)"/>
       <path id="DejaVuSans-73" d="M 2834 3397 
L 2834 2853 
Q 2591 2978 2328 3040 
Q 2066 3103 1784 3103 
Q 1356 3103 1142 2972 
Q 928 2841 928 2578 
Q 928 2378 1081 2264 
Q 1234 2150 1697 2047 
L 1894 2003 
Q 2506 1872 2764 1633 
Q 3022 1394 3022 966 
Q 3022 478 2636 193 
Q 2250 -91 1575 -91 
Q 1294 -91 989 -36 
Q 684 19 347 128 
L 347 722 
Q 666 556 975 473 
Q 1284 391 1588 391 
Q 1994 391 2212 530 
Q 2431 669 2431 922 
Q 2431 1156 2273 1281 
Q 2116 1406 1581 1522 
L 1381 1569 
Q 847 1681 609 1914 
Q 372 2147 372 2553 
Q 372 3047 722 3315 
Q 1072 3584 1716 3584 
Q 2034 3584 2315 3537 
Q 2597 3491 2834 3397 
z
" transform="scale(0.015625)"/>
       <path id="DejaVuSans-6f" d="M 1959 3097 
Q 1497 3097 1228 2736 
Q 959 2375 959 1747 
Q 959 1119 1226 758 
Q 1494 397 1959 397 
Q 2419 397 2687 759 
Q 2956 1122 2956 1747 
Q 2956 2369 2687 2733 
Q 2419 3097 1959 3097 
z
M 1959 3584 
Q 2709 3584 3137 3096 
Q 3566 2609 3566 1747 
Q 3566 888 3137 398 
Q 2709 -91 1959 -91 
Q 1206 -91 779 398 
Q 353 888 353 1747 
Q 353 2609 779 3096 
Q 1206 3584 1959 3584 
z
" transform="scale(0.015625)"/>
      </defs>
      <use xlink:href="#DejaVuSans-54"/>
      <use xlink:href="#DejaVuSans-72" x="46.333984"/>
      <use xlink:href="#DejaVuSans-61" x="87.447266"/>
      <use xlink:href="#DejaVuSans-6a" x="148.726562"/>
      <use xlink:href="#DejaVuSans-2e" x="176.509766"/>
      <use xlink:href="#DejaVuSans-20" x="208.296875"/>
      <use xlink:href="#DejaVuSans-62" x="240.083984"/>
      <use xlink:href="#DejaVuSans-61" x="303.560547"/>
      <use xlink:href="#DejaVuSans-73" x="364.839844"/>
      <use xlink:href="#DejaVuSans-65" x="416.939453"/>
      <use xlink:href="#DejaVuSans-64" x="478.462891"/>
      <use xlink:href="#DejaVuSans-20" x="541.939453"/>
      <use xlink:href="#DejaVuSans-6f" x="573.726562"/>
      <use xlink:href="#DejaVuSans-6e" x="634.908203"/>
      <use xlink:href="#DejaVuSans-20" x="698.287109"/>
      <use xlink:href="#DejaVuSans-6d" x="730.074219"/>
      <use xlink:href="#DejaVuSans-65" x="827.486328"/>
      <use xlink:href="#DejaVuSans-61" x="889.009766"/>
      <use xlink:href="#DejaVuSans-73" x="950.289062"/>
      <use xlink:href="#DejaVuSans-2e" x="1002.388672"/>
     </g>
    </g>
   </g>
  </g>
 </g>
 <defs>
  <clipPath id="p284d3d0f2d">
   <rect x="56.259687" y="12.518906" width="446.4" height="194.04"/>
  </clipPath>
 </defs>
</svg>
