<?xml version="1.0" encoding="utf-8" standalone="no"?>
<!DOCTYPE svg PUBLIC "-//W3C//DTD SVG 1.1//EN"
  "http://www.w3.org/Graphics/SVG/1.1/DTD/svg11.dtd">
<svg xmlns:xlink="http://www.w3.org/1999/xlink" width="336.765625pt" height="161.371094pt" viewBox="0 0 336.765625 161.371094" xmlns="http://www.w3.org/2000/svg" version="1.1">
 <metadata>
  <rdf:RDF xmlns:dc="http://purl.org/dc/elements/1.1/" xmlns:cc="http://creativecommons.org/ns#" xmlns:rdf="http://www.w3.org/1999/02/22-rdf-syntax-ns#">
   <cc:Work>
    <dc:type rdf:resource="http://purl.org/dc/dcmitype/StillImage"/>
    <dc:date>2024-04-05T01:12:06.727630</dc:date>
    <dc:format>image/svg+xml</dc:format>
    <dc:creator>
     <cc:Agent>
      <dc:title>Matplotlib v3.8.0, https://matplotlib.org/</dc:title>
     </cc:Agent>
    </dc:creator>
   </cc:Work>
  </rdf:RDF>
 </metadata>
 <defs>
  <style type="text/css">*{stroke-linejoin: round; stroke-linecap: butt}</style>
 </defs>
 <g id="figure_1">
  <g id="patch_1">
   <path d="M 0 161.371094 
L 336.765625 161.371094 
L 336.765625 0 
L 0 0 
L 0 161.371094 
z
" style="fill: none"/>
  </g>
  <g id="axes_1">
   <g id="patch_2">
    <path d="M 44.203125 121.879219 
L 323.203125 121.879219 
L 323.203125 10.999219 
L 44.203125 10.999219 
L 44.203125 121.879219 
z
" style="fill: none"/>
   </g>
   <g id="matplotlib.axis_1">
    <g id="xtick_1">
     <g id="line2d_1">
      <defs>
       <path id="mee0ad31d9a" d="M 0 0 
L 0 3.5 
" style="stroke: #000000; stroke-width: 0.8"/>
      </defs>
      <g>
       <use xlink:href="#mee0ad31d9a" x="44.203125" y="121.879219" style="stroke: #000000; stroke-width: 0.8"/>
      </g>
     </g>
     <g id="text_1">
      <!-- 0 -->
      <g transform="translate(41.021875 136.477656) scale(0.1 -0.1)">
       <defs>
        <path id="DejaVuSans-30" d="M 2034 4250 
Q 1547 4250 1301 3770 
Q 1056 3291 1056 2328 
Q 1056 1369 1301 889 
Q 1547 409 2034 409 
Q 2525 409 2770 889 
Q 3016 1369 3016 2328 
Q 3016 3291 2770 3770 
Q 2525 4250 2034 4250 
z
M 2034 4750 
Q 2819 4750 3233 4129 
Q 3647 3509 3647 2328 
Q 3647 1150 3233 529 
Q 2819 -91 2034 -91 
Q 1250 -91 836 529 
Q 422 1150 422 2328 
Q 422 3509 836 4129 
Q 1250 4750 2034 4750 
z
" transform="scale(0.015625)"/>
       </defs>
       <use xlink:href="#DejaVuSans-30"/>
      </g>
     </g>
    </g>
    <g id="xtick_2">
     <g id="line2d_2">
      <g>
       <use xlink:href="#mee0ad31d9a" x="79.078125" y="121.879219" style="stroke: #000000; stroke-width: 0.8"/>
      </g>
     </g>
     <g id="text_2">
      <!-- 5 -->
      <g transform="translate(75.896875 136.477656) scale(0.1 -0.1)">
       <defs>
        <path id="DejaVuSans-35" d="M 691 4666 
L 3169 4666 
L 3169 4134 
L 1269 4134 
L 1269 2991 
Q 1406 3038 1543 3061 
Q 1681 3084 1819 3084 
Q 2600 3084 3056 2656 
Q 3513 2228 3513 1497 
Q 3513 744 3044 326 
Q 2575 -91 1722 -91 
Q 1428 -91 1123 -41 
Q 819 9 494 109 
L 494 744 
Q 775 591 1075 516 
Q 1375 441 1709 441 
Q 2250 441 2565 725 
Q 2881 1009 2881 1497 
Q 2881 1984 2565 2268 
Q 2250 2553 1709 2553 
Q 1456 2553 1204 2497 
Q 953 2441 691 2322 
L 691 4666 
z
" transform="scale(0.015625)"/>
       </defs>
       <use xlink:href="#DejaVuSans-35"/>
      </g>
     </g>
    </g>
    <g id="xtick_3">
     <g id="line2d_3">
      <g>
       <use xlink:href="#mee0ad31d9a" x="113.953125" y="121.879219" style="stroke: #000000; stroke-width: 0.8"/>
      </g>
     </g>
     <g id="text_3">
      <!-- 10 -->
      <g transform="translate(107.590625 136.477656) scale(0.1 -0.1)">
       <defs>
        <path id="DejaVuSans-31" d="M 794 531 
L 1825 531 
L 1825 4091 
L 703 3866 
L 703 4441 
L 1819 4666 
L 2450 4666 
L 2450 531 
L 3481 531 
L 3481 0 
L 794 0 
L 794 531 
z
" transform="scale(0.015625)"/>
       </defs>
       <use xlink:href="#DejaVuSans-31"/>
       <use xlink:href="#DejaVuSans-30" x="63.623047"/>
      </g>
     </g>
    </g>
    <g id="xtick_4">
     <g id="line2d_4">
      <g>
       <use xlink:href="#mee0ad31d9a" x="148.828125" y="121.879219" style="stroke: #000000; stroke-width: 0.8"/>
      </g>
     </g>
     <g id="text_4">
      <!-- 15 -->
      <g transform="translate(142.465625 136.477656) scale(0.1 -0.1)">
       <use xlink:href="#DejaVuSans-31"/>
       <use xlink:href="#DejaVuSans-35" x="63.623047"/>
      </g>
     </g>
    </g>
    <g id="xtick_5">
     <g id="line2d_5">
      <g>
       <use xlink:href="#mee0ad31d9a" x="183.703125" y="121.879219" style="stroke: #000000; stroke-width: 0.8"/>
      </g>
     </g>
     <g id="text_5">
      <!-- 20 -->
      <g transform="translate(177.340625 136.477656) scale(0.1 -0.1)">
       <defs>
        <path id="DejaVuSans-32" d="M 1228 531 
L 3431 531 
L 3431 0 
L 469 0 
L 469 531 
Q 828 903 1448 1529 
Q 2069 2156 2228 2338 
Q 2531 2678 2651 2914 
Q 2772 3150 2772 3378 
Q 2772 3750 2511 3984 
Q 2250 4219 1831 4219 
Q 1534 4219 1204 4116 
Q 875 4013 500 3803 
L 500 4441 
Q 881 4594 1212 4672 
Q 1544 4750 1819 4750 
Q 2544 4750 2975 4387 
Q 3406 4025 3406 3419 
Q 3406 3131 3298 2873 
Q 3191 2616 2906 2266 
Q 2828 2175 2409 1742 
Q 1991 1309 1228 531 
z
" transform="scale(0.015625)"/>
       </defs>
       <use xlink:href="#DejaVuSans-32"/>
       <use xlink:href="#DejaVuSans-30" x="63.623047"/>
      </g>
     </g>
    </g>
    <g id="xtick_6">
     <g id="line2d_6">
      <g>
       <use xlink:href="#mee0ad31d9a" x="218.578125" y="121.879219" style="stroke: #000000; stroke-width: 0.8"/>
      </g>
     </g>
     <g id="text_6">
      <!-- 25 -->
      <g transform="translate(212.215625 136.477656) scale(0.1 -0.1)">
       <use xlink:href="#DejaVuSans-32"/>
       <use xlink:href="#DejaVuSans-35" x="63.623047"/>
      </g>
     </g>
    </g>
    <g id="xtick_7">
     <g id="line2d_7">
      <g>
       <use xlink:href="#mee0ad31d9a" x="253.453125" y="121.879219" style="stroke: #000000; stroke-width: 0.8"/>
      </g>
     </g>
     <g id="text_7">
      <!-- 30 -->
      <g transform="translate(247.090625 136.477656) scale(0.1 -0.1)">
       <defs>
        <path id="DejaVuSans-33" d="M 2597 2516 
Q 3050 2419 3304 2112 
Q 3559 1806 3559 1356 
Q 3559 666 3084 287 
Q 2609 -91 1734 -91 
Q 1441 -91 1130 -33 
Q 819 25 488 141 
L 488 750 
Q 750 597 1062 519 
Q 1375 441 1716 441 
Q 2309 441 2620 675 
Q 2931 909 2931 1356 
Q 2931 1769 2642 2001 
Q 2353 2234 1838 2234 
L 1294 2234 
L 1294 2753 
L 1863 2753 
Q 2328 2753 2575 2939 
Q 2822 3125 2822 3475 
Q 2822 3834 2567 4026 
Q 2313 4219 1838 4219 
Q 1578 4219 1281 4162 
Q 984 4106 628 3988 
L 628 4550 
Q 988 4650 1302 4700 
Q 1616 4750 1894 4750 
Q 2613 4750 3031 4423 
Q 3450 4097 3450 3541 
Q 3450 3153 3228 2886 
Q 3006 2619 2597 2516 
z
" transform="scale(0.015625)"/>
       </defs>
       <use xlink:href="#DejaVuSans-33"/>
       <use xlink:href="#DejaVuSans-30" x="63.623047"/>
      </g>
     </g>
    </g>
    <g id="xtick_8">
     <g id="line2d_8">
      <g>
       <use xlink:href="#mee0ad31d9a" x="288.328125" y="121.879219" style="stroke: #000000; stroke-width: 0.8"/>
      </g>
     </g>
     <g id="text_8">
      <!-- 35 -->
      <g transform="translate(281.965625 136.477656) scale(0.1 -0.1)">
       <use xlink:href="#DejaVuSans-33"/>
       <use xlink:href="#DejaVuSans-35" x="63.623047"/>
      </g>
     </g>
    </g>
    <g id="xtick_9">
     <g id="line2d_9">
      <g>
       <use xlink:href="#mee0ad31d9a" x="323.203125" y="121.879219" style="stroke: #000000; stroke-width: 0.8"/>
      </g>
     </g>
     <g id="text_9">
      <!-- 40 -->
      <g transform="translate(316.840625 136.477656) scale(0.1 -0.1)">
       <defs>
        <path id="DejaVuSans-34" d="M 2419 4116 
L 825 1625 
L 2419 1625 
L 2419 4116 
z
M 2253 4666 
L 3047 4666 
L 3047 1625 
L 3713 1625 
L 3713 1100 
L 3047 1100 
L 3047 0 
L 2419 0 
L 2419 1100 
L 313 1100 
L 313 1709 
L 2253 4666 
z
" transform="scale(0.015625)"/>
       </defs>
       <use xlink:href="#DejaVuSans-34"/>
       <use xlink:href="#DejaVuSans-30" x="63.623047"/>
      </g>
     </g>
    </g>
    <g id="text_10">
     <!-- Time $k$ -->
     <g transform="translate(163.423125 151.675469) scale(0.12 -0.12)">
      <defs>
       <path id="DejaVuSans-54" d="M -19 4666 
L 3928 4666 
L 3928 4134 
L 2272 4134 
L 2272 0 
L 1638 0 
L 1638 4134 
L -19 4134 
L -19 4666 
z
" transform="scale(0.015625)"/>
       <path id="DejaVuSans-69" d="M 603 3500 
L 1178 3500 
L 1178 0 
L 603 0 
L 603 3500 
z
M 603 4863 
L 1178 4863 
L 1178 4134 
L 603 4134 
L 603 4863 
z
" transform="scale(0.015625)"/>
       <path id="DejaVuSans-6d" d="M 3328 2828 
Q 3544 3216 3844 3400 
Q 4144 3584 4550 3584 
Q 5097 3584 5394 3201 
Q 5691 2819 5691 2113 
L 5691 0 
L 5113 0 
L 5113 2094 
Q 5113 2597 4934 2840 
Q 4756 3084 4391 3084 
Q 3944 3084 3684 2787 
Q 3425 2491 3425 1978 
L 3425 0 
L 2847 0 
L 2847 2094 
Q 2847 2600 2669 2842 
Q 2491 3084 2119 3084 
Q 1678 3084 1418 2786 
Q 1159 2488 1159 1978 
L 1159 0 
L 581 0 
L 581 3500 
L 1159 3500 
L 1159 2956 
Q 1356 3278 1631 3431 
Q 1906 3584 2284 3584 
Q 2666 3584 2933 3390 
Q 3200 3197 3328 2828 
z
" transform="scale(0.015625)"/>
       <path id="DejaVuSans-65" d="M 3597 1894 
L 3597 1613 
L 953 1613 
Q 991 1019 1311 708 
Q 1631 397 2203 397 
Q 2534 397 2845 478 
Q 3156 559 3463 722 
L 3463 178 
Q 3153 47 2828 -22 
Q 2503 -91 2169 -91 
Q 1331 -91 842 396 
Q 353 884 353 1716 
Q 353 2575 817 3079 
Q 1281 3584 2069 3584 
Q 2775 3584 3186 3129 
Q 3597 2675 3597 1894 
z
M 3022 2063 
Q 3016 2534 2758 2815 
Q 2500 3097 2075 3097 
Q 1594 3097 1305 2825 
Q 1016 2553 972 2059 
L 3022 2063 
z
" transform="scale(0.015625)"/>
       <path id="DejaVuSans-20" transform="scale(0.015625)"/>
       <path id="DejaVuSans-Oblique-6b" d="M 1172 4863 
L 1747 4863 
L 1197 2028 
L 3169 3500 
L 3916 3500 
L 1716 1825 
L 3322 0 
L 2625 0 
L 1131 1709 
L 800 0 
L 225 0 
L 1172 4863 
z
" transform="scale(0.015625)"/>
      </defs>
      <use xlink:href="#DejaVuSans-54" transform="translate(0 0.015625)"/>
      <use xlink:href="#DejaVuSans-69" transform="translate(61.083984 0.015625)"/>
      <use xlink:href="#DejaVuSans-6d" transform="translate(88.867188 0.015625)"/>
      <use xlink:href="#DejaVuSans-65" transform="translate(186.279297 0.015625)"/>
      <use xlink:href="#DejaVuSans-20" transform="translate(247.802734 0.015625)"/>
      <use xlink:href="#DejaVuSans-Oblique-6b" transform="translate(279.589844 0.015625)"/>
     </g>
    </g>
   </g>
   <g id="matplotlib.axis_2">
    <g id="ytick_1">
     <g id="line2d_10">
      <defs>
       <path id="m97ace269c9" d="M 0 0 
L -3.5 0 
" style="stroke: #000000; stroke-width: 0.8"/>
      </defs>
      <g>
       <use xlink:href="#m97ace269c9" x="44.203125" y="121.879219" style="stroke: #000000; stroke-width: 0.8"/>
      </g>
     </g>
     <g id="text_11">
      <!-- 0.5 -->
      <g transform="translate(21.3 125.678438) scale(0.1 -0.1)">
       <defs>
        <path id="DejaVuSans-2e" d="M 684 794 
L 1344 794 
L 1344 0 
L 684 0 
L 684 794 
z
" transform="scale(0.015625)"/>
       </defs>
       <use xlink:href="#DejaVuSans-30"/>
       <use xlink:href="#DejaVuSans-2e" x="63.623047"/>
       <use xlink:href="#DejaVuSans-35" x="95.410156"/>
      </g>
     </g>
    </g>
    <g id="ytick_2">
     <g id="line2d_11">
      <g>
       <use xlink:href="#m97ace269c9" x="44.203125" y="99.703219" style="stroke: #000000; stroke-width: 0.8"/>
      </g>
     </g>
     <g id="text_12">
      <!-- 0.6 -->
      <g transform="translate(21.3 103.502438) scale(0.1 -0.1)">
       <defs>
        <path id="DejaVuSans-36" d="M 2113 2584 
Q 1688 2584 1439 2293 
Q 1191 2003 1191 1497 
Q 1191 994 1439 701 
Q 1688 409 2113 409 
Q 2538 409 2786 701 
Q 3034 994 3034 1497 
Q 3034 2003 2786 2293 
Q 2538 2584 2113 2584 
z
M 3366 4563 
L 3366 3988 
Q 3128 4100 2886 4159 
Q 2644 4219 2406 4219 
Q 1781 4219 1451 3797 
Q 1122 3375 1075 2522 
Q 1259 2794 1537 2939 
Q 1816 3084 2150 3084 
Q 2853 3084 3261 2657 
Q 3669 2231 3669 1497 
Q 3669 778 3244 343 
Q 2819 -91 2113 -91 
Q 1303 -91 875 529 
Q 447 1150 447 2328 
Q 447 3434 972 4092 
Q 1497 4750 2381 4750 
Q 2619 4750 2861 4703 
Q 3103 4656 3366 4563 
z
" transform="scale(0.015625)"/>
       </defs>
       <use xlink:href="#DejaVuSans-30"/>
       <use xlink:href="#DejaVuSans-2e" x="63.623047"/>
       <use xlink:href="#DejaVuSans-36" x="95.410156"/>
      </g>
     </g>
    </g>
    <g id="ytick_3">
     <g id="line2d_12">
      <g>
       <use xlink:href="#m97ace269c9" x="44.203125" y="77.527219" style="stroke: #000000; stroke-width: 0.8"/>
      </g>
     </g>
     <g id="text_13">
      <!-- 0.7 -->
      <g transform="translate(21.3 81.326438) scale(0.1 -0.1)">
       <defs>
        <path id="DejaVuSans-37" d="M 525 4666 
L 3525 4666 
L 3525 4397 
L 1831 0 
L 1172 0 
L 2766 4134 
L 525 4134 
L 525 4666 
z
" transform="scale(0.015625)"/>
       </defs>
       <use xlink:href="#DejaVuSans-30"/>
       <use xlink:href="#DejaVuSans-2e" x="63.623047"/>
       <use xlink:href="#DejaVuSans-37" x="95.410156"/>
      </g>
     </g>
    </g>
    <g id="ytick_4">
     <g id="line2d_13">
      <g>
       <use xlink:href="#m97ace269c9" x="44.203125" y="55.351219" style="stroke: #000000; stroke-width: 0.8"/>
      </g>
     </g>
     <g id="text_14">
      <!-- 0.8 -->
      <g transform="translate(21.3 59.150437) scale(0.1 -0.1)">
       <defs>
        <path id="DejaVuSans-38" d="M 2034 2216 
Q 1584 2216 1326 1975 
Q 1069 1734 1069 1313 
Q 1069 891 1326 650 
Q 1584 409 2034 409 
Q 2484 409 2743 651 
Q 3003 894 3003 1313 
Q 3003 1734 2745 1975 
Q 2488 2216 2034 2216 
z
M 1403 2484 
Q 997 2584 770 2862 
Q 544 3141 544 3541 
Q 544 4100 942 4425 
Q 1341 4750 2034 4750 
Q 2731 4750 3128 4425 
Q 3525 4100 3525 3541 
Q 3525 3141 3298 2862 
Q 3072 2584 2669 2484 
Q 3125 2378 3379 2068 
Q 3634 1759 3634 1313 
Q 3634 634 3220 271 
Q 2806 -91 2034 -91 
Q 1263 -91 848 271 
Q 434 634 434 1313 
Q 434 1759 690 2068 
Q 947 2378 1403 2484 
z
M 1172 3481 
Q 1172 3119 1398 2916 
Q 1625 2713 2034 2713 
Q 2441 2713 2670 2916 
Q 2900 3119 2900 3481 
Q 2900 3844 2670 4047 
Q 2441 4250 2034 4250 
Q 1625 4250 1398 4047 
Q 1172 3844 1172 3481 
z
" transform="scale(0.015625)"/>
       </defs>
       <use xlink:href="#DejaVuSans-30"/>
       <use xlink:href="#DejaVuSans-2e" x="63.623047"/>
       <use xlink:href="#DejaVuSans-38" x="95.410156"/>
      </g>
     </g>
    </g>
    <g id="ytick_5">
     <g id="line2d_14">
      <g>
       <use xlink:href="#m97ace269c9" x="44.203125" y="33.175219" style="stroke: #000000; stroke-width: 0.8"/>
      </g>
     </g>
     <g id="text_15">
      <!-- 0.9 -->
      <g transform="translate(21.3 36.974437) scale(0.1 -0.1)">
       <defs>
        <path id="DejaVuSans-39" d="M 703 97 
L 703 672 
Q 941 559 1184 500 
Q 1428 441 1663 441 
Q 2288 441 2617 861 
Q 2947 1281 2994 2138 
Q 2813 1869 2534 1725 
Q 2256 1581 1919 1581 
Q 1219 1581 811 2004 
Q 403 2428 403 3163 
Q 403 3881 828 4315 
Q 1253 4750 1959 4750 
Q 2769 4750 3195 4129 
Q 3622 3509 3622 2328 
Q 3622 1225 3098 567 
Q 2575 -91 1691 -91 
Q 1453 -91 1209 -44 
Q 966 3 703 97 
z
M 1959 2075 
Q 2384 2075 2632 2365 
Q 2881 2656 2881 3163 
Q 2881 3666 2632 3958 
Q 2384 4250 1959 4250 
Q 1534 4250 1286 3958 
Q 1038 3666 1038 3163 
Q 1038 2656 1286 2365 
Q 1534 2075 1959 2075 
z
" transform="scale(0.015625)"/>
       </defs>
       <use xlink:href="#DejaVuSans-30"/>
       <use xlink:href="#DejaVuSans-2e" x="63.623047"/>
       <use xlink:href="#DejaVuSans-39" x="95.410156"/>
      </g>
     </g>
    </g>
    <g id="ytick_6">
     <g id="line2d_15">
      <g>
       <use xlink:href="#m97ace269c9" x="44.203125" y="10.999219" style="stroke: #000000; stroke-width: 0.8"/>
      </g>
     </g>
     <g id="text_16">
      <!-- 1.0 -->
      <g transform="translate(21.3 14.798438) scale(0.1 -0.1)">
       <use xlink:href="#DejaVuSans-31"/>
       <use xlink:href="#DejaVuSans-2e" x="63.623047"/>
       <use xlink:href="#DejaVuSans-30" x="95.410156"/>
      </g>
     </g>
    </g>
    <g id="text_17">
     <!-- Lower bounds $\rho_{i,k}$ for $\varphi_i$ -->
     <g transform="translate(14.8 125.639219) rotate(-90) scale(0.1 -0.1)">
      <defs>
       <path id="DejaVuSans-4c" d="M 628 4666 
L 1259 4666 
L 1259 531 
L 3531 531 
L 3531 0 
L 628 0 
L 628 4666 
z
" transform="scale(0.015625)"/>
       <path id="DejaVuSans-6f" d="M 1959 3097 
Q 1497 3097 1228 2736 
Q 959 2375 959 1747 
Q 959 1119 1226 758 
Q 1494 397 1959 397 
Q 2419 397 2687 759 
Q 2956 1122 2956 1747 
Q 2956 2369 2687 2733 
Q 2419 3097 1959 3097 
z
M 1959 3584 
Q 2709 3584 3137 3096 
Q 3566 2609 3566 1747 
Q 3566 888 3137 398 
Q 2709 -91 1959 -91 
Q 1206 -91 779 398 
Q 353 888 353 1747 
Q 353 2609 779 3096 
Q 1206 3584 1959 3584 
z
" transform="scale(0.015625)"/>
       <path id="DejaVuSans-77" d="M 269 3500 
L 844 3500 
L 1563 769 
L 2278 3500 
L 2956 3500 
L 3675 769 
L 4391 3500 
L 4966 3500 
L 4050 0 
L 3372 0 
L 2619 2869 
L 1863 0 
L 1184 0 
L 269 3500 
z
" transform="scale(0.015625)"/>
       <path id="DejaVuSans-72" d="M 2631 2963 
Q 2534 3019 2420 3045 
Q 2306 3072 2169 3072 
Q 1681 3072 1420 2755 
Q 1159 2438 1159 1844 
L 1159 0 
L 581 0 
L 581 3500 
L 1159 3500 
L 1159 2956 
Q 1341 3275 1631 3429 
Q 1922 3584 2338 3584 
Q 2397 3584 2469 3576 
Q 2541 3569 2628 3553 
L 2631 2963 
z
" transform="scale(0.015625)"/>
       <path id="DejaVuSans-62" d="M 3116 1747 
Q 3116 2381 2855 2742 
Q 2594 3103 2138 3103 
Q 1681 3103 1420 2742 
Q 1159 2381 1159 1747 
Q 1159 1113 1420 752 
Q 1681 391 2138 391 
Q 2594 391 2855 752 
Q 3116 1113 3116 1747 
z
M 1159 2969 
Q 1341 3281 1617 3432 
Q 1894 3584 2278 3584 
Q 2916 3584 3314 3078 
Q 3713 2572 3713 1747 
Q 3713 922 3314 415 
Q 2916 -91 2278 -91 
Q 1894 -91 1617 61 
Q 1341 213 1159 525 
L 1159 0 
L 581 0 
L 581 4863 
L 1159 4863 
L 1159 2969 
z
" transform="scale(0.015625)"/>
       <path id="DejaVuSans-75" d="M 544 1381 
L 544 3500 
L 1119 3500 
L 1119 1403 
Q 1119 906 1312 657 
Q 1506 409 1894 409 
Q 2359 409 2629 706 
Q 2900 1003 2900 1516 
L 2900 3500 
L 3475 3500 
L 3475 0 
L 2900 0 
L 2900 538 
Q 2691 219 2414 64 
Q 2138 -91 1772 -91 
Q 1169 -91 856 284 
Q 544 659 544 1381 
z
M 1991 3584 
L 1991 3584 
z
" transform="scale(0.015625)"/>
       <path id="DejaVuSans-6e" d="M 3513 2113 
L 3513 0 
L 2938 0 
L 2938 2094 
Q 2938 2591 2744 2837 
Q 2550 3084 2163 3084 
Q 1697 3084 1428 2787 
Q 1159 2491 1159 1978 
L 1159 0 
L 581 0 
L 581 3500 
L 1159 3500 
L 1159 2956 
Q 1366 3272 1645 3428 
Q 1925 3584 2291 3584 
Q 2894 3584 3203 3211 
Q 3513 2838 3513 2113 
z
" transform="scale(0.015625)"/>
       <path id="DejaVuSans-64" d="M 2906 2969 
L 2906 4863 
L 3481 4863 
L 3481 0 
L 2906 0 
L 2906 525 
Q 2725 213 2448 61 
Q 2172 -91 1784 -91 
Q 1150 -91 751 415 
Q 353 922 353 1747 
Q 353 2572 751 3078 
Q 1150 3584 1784 3584 
Q 2172 3584 2448 3432 
Q 2725 3281 2906 2969 
z
M 947 1747 
Q 947 1113 1208 752 
Q 1469 391 1925 391 
Q 2381 391 2643 752 
Q 2906 1113 2906 1747 
Q 2906 2381 2643 2742 
Q 2381 3103 1925 3103 
Q 1469 3103 1208 2742 
Q 947 2381 947 1747 
z
" transform="scale(0.015625)"/>
       <path id="DejaVuSans-73" d="M 2834 3397 
L 2834 2853 
Q 2591 2978 2328 3040 
Q 2066 3103 1784 3103 
Q 1356 3103 1142 2972 
Q 928 2841 928 2578 
Q 928 2378 1081 2264 
Q 1234 2150 1697 2047 
L 1894 2003 
Q 2506 1872 2764 1633 
Q 3022 1394 3022 966 
Q 3022 478 2636 193 
Q 2250 -91 1575 -91 
Q 1294 -91 989 -36 
Q 684 19 347 128 
L 347 722 
Q 666 556 975 473 
Q 1284 391 1588 391 
Q 1994 391 2212 530 
Q 2431 669 2431 922 
Q 2431 1156 2273 1281 
Q 2116 1406 1581 1522 
L 1381 1569 
Q 847 1681 609 1914 
Q 372 2147 372 2553 
Q 372 3047 722 3315 
Q 1072 3584 1716 3584 
Q 2034 3584 2315 3537 
Q 2597 3491 2834 3397 
z
" transform="scale(0.015625)"/>
       <path id="DejaVuSans-Oblique-3c1" d="M 1203 2875 
Q 1453 3194 1981 3475 
Q 2188 3584 2756 3584 
Q 3394 3584 3694 3078 
Q 3994 2572 3834 1747 
Q 3672 922 3175 415 
Q 2678 -91 2041 -91 
Q 1656 -91 1409 63 
Q 1163 213 1044 525 
L 681 -1331 
L 103 -1331 
L 697 1716 
Q 838 2438 1203 2875 
z
M 3238 1747 
Q 3359 2381 3169 2744 
Q 2978 3103 2522 3103 
Q 2066 3103 1734 2744 
Q 1403 2381 1281 1747 
Q 1156 1113 1347 750 
Q 1538 391 1994 391 
Q 2450 391 2781 750 
Q 3113 1113 3238 1747 
z
" transform="scale(0.015625)"/>
       <path id="DejaVuSans-Oblique-69" d="M 1172 4863 
L 1747 4863 
L 1606 4134 
L 1031 4134 
L 1172 4863 
z
M 909 3500 
L 1484 3500 
L 800 0 
L 225 0 
L 909 3500 
z
" transform="scale(0.015625)"/>
       <path id="DejaVuSans-2c" d="M 750 794 
L 1409 794 
L 1409 256 
L 897 -744 
L 494 -744 
L 750 256 
L 750 794 
z
" transform="scale(0.015625)"/>
       <path id="DejaVuSans-66" d="M 2375 4863 
L 2375 4384 
L 1825 4384 
Q 1516 4384 1395 4259 
Q 1275 4134 1275 3809 
L 1275 3500 
L 2222 3500 
L 2222 3053 
L 1275 3053 
L 1275 0 
L 697 0 
L 697 3053 
L 147 3053 
L 147 3500 
L 697 3500 
L 697 3744 
Q 697 4328 969 4595 
Q 1241 4863 1831 4863 
L 2375 4863 
z
" transform="scale(0.015625)"/>
       <path id="DejaVuSans-Oblique-3c6" d="M 2969 3034 
Q 2766 3034 2675 2581 
L 2259 438 
Q 2553 438 2916 763 
Q 3244 1053 3375 1750 
Q 3497 2400 3300 2750 
Q 3138 3034 2969 3034 
z
M 3063 3525 
Q 3513 3525 3819 3113 
Q 4147 2672 3981 1750 
Q 3828 903 3291 400 
Q 2784 -75 2159 -75 
L 1916 -1331 
L 1344 -1331 
L 1588 -78 
Q 963 -78 641 400 
Q 309 888 475 1747 
Q 647 2641 1166 3097 
Q 1556 3438 2084 3525 
L 1984 3016 
Q 1766 2944 1538 2700 
Q 1194 2341 1081 1747 
Q 963 1116 1156 756 
Q 1334 434 1688 434 
L 2103 2581 
Q 2288 3525 3063 3525 
z
" transform="scale(0.015625)"/>
      </defs>
      <use xlink:href="#DejaVuSans-4c" transform="translate(0 0.015625)"/>
      <use xlink:href="#DejaVuSans-6f" transform="translate(55.712891 0.015625)"/>
      <use xlink:href="#DejaVuSans-77" transform="translate(116.894531 0.015625)"/>
      <use xlink:href="#DejaVuSans-65" transform="translate(198.681641 0.015625)"/>
      <use xlink:href="#DejaVuSans-72" transform="translate(260.205078 0.015625)"/>
      <use xlink:href="#DejaVuSans-20" transform="translate(301.318359 0.015625)"/>
      <use xlink:href="#DejaVuSans-62" transform="translate(333.105469 0.015625)"/>
      <use xlink:href="#DejaVuSans-6f" transform="translate(396.582031 0.015625)"/>
      <use xlink:href="#DejaVuSans-75" transform="translate(457.763672 0.015625)"/>
      <use xlink:href="#DejaVuSans-6e" transform="translate(521.142578 0.015625)"/>
      <use xlink:href="#DejaVuSans-64" transform="translate(584.521484 0.015625)"/>
      <use xlink:href="#DejaVuSans-73" transform="translate(647.998047 0.015625)"/>
      <use xlink:href="#DejaVuSans-20" transform="translate(700.097656 0.015625)"/>
      <use xlink:href="#DejaVuSans-Oblique-3c1" transform="translate(731.884766 0.015625)"/>
      <use xlink:href="#DejaVuSans-Oblique-69" transform="translate(795.361328 -16.390625) scale(0.7)"/>
      <use xlink:href="#DejaVuSans-2c" transform="translate(814.80957 -16.390625) scale(0.7)"/>
      <use xlink:href="#DejaVuSans-Oblique-6b" transform="translate(850.698242 -16.390625) scale(0.7)"/>
      <use xlink:href="#DejaVuSans-20" transform="translate(893.969727 0.015625)"/>
      <use xlink:href="#DejaVuSans-66" transform="translate(925.756836 0.015625)"/>
      <use xlink:href="#DejaVuSans-6f" transform="translate(960.961914 0.015625)"/>
      <use xlink:href="#DejaVuSans-72" transform="translate(1022.143555 0.015625)"/>
      <use xlink:href="#DejaVuSans-20" transform="translate(1063.256836 0.015625)"/>
      <use xlink:href="#DejaVuSans-Oblique-3c6" transform="translate(1095.043945 0.015625)"/>
      <use xlink:href="#DejaVuSans-Oblique-69" transform="translate(1161.010742 -16.390625) scale(0.7)"/>
     </g>
    </g>
   </g>
   <g id="line2d_16">
    <path d="M 44.203125 99.703251 
L 51.178125 99.70322 
L 58.153125 99.70322 
L 65.128125 99.70322 
L 72.103125 99.70322 
L 79.078125 99.70322 
L 86.053125 99.70322 
L 93.028125 99.70322 
L 100.003125 99.70322 
L 106.978125 99.70322 
L 113.953125 99.70322 
L 120.928125 99.70322 
L 127.903125 99.70322 
L 134.878125 99.70322 
L 141.853125 99.70322 
L 148.828125 99.70322 
L 155.803125 99.70322 
L 162.778125 99.70322 
L 169.753125 99.70322 
L 176.728125 99.70322 
L 183.703125 99.70322 
L 190.678125 99.70322 
L 197.653125 99.70322 
L 204.628125 99.70322 
L 211.603125 99.70322 
L 218.578125 99.70322 
L 225.553125 99.70322 
L 232.528125 99.70322 
L 239.503125 99.70322 
L 246.478125 99.70322 
L 253.453125 99.70322 
L 260.428125 99.70322 
L 267.403125 99.70322 
L 274.378125 99.70322 
L 281.353125 99.70322 
L 288.328125 99.70322 
L 295.303125 99.70322 
L 302.278125 99.70322 
L 309.253125 99.70322 
L 316.228125 99.70322 
" clip-path="url(#pb1f95c3ca5)" style="fill: none; stroke-dasharray: 2,3.3; stroke-dashoffset: 0; stroke: #66b266; stroke-width: 2"/>
    <defs>
     <path id="m19980e2a16" d="M 0 2 
C 0.530406 2 1.03916 1.789267 1.414214 1.414214 
C 1.789267 1.03916 2 0.530406 2 0 
C 2 -0.530406 1.789267 -1.03916 1.414214 -1.414214 
C 1.03916 -1.789267 0.530406 -2 0 -2 
C -0.530406 -2 -1.03916 -1.789267 -1.414214 -1.414214 
C -1.789267 -1.03916 -2 -0.530406 -2 0 
C -2 0.530406 -1.789267 1.03916 -1.414214 1.414214 
C -1.03916 1.789267 -0.530406 2 0 2 
z
" style="stroke: #66b266"/>
    </defs>
    <g clip-path="url(#pb1f95c3ca5)">
     <use xlink:href="#m19980e2a16" x="44.203125" y="99.703251" style="fill: #66b266; stroke: #66b266"/>
     <use xlink:href="#m19980e2a16" x="51.178125" y="99.70322" style="fill: #66b266; stroke: #66b266"/>
     <use xlink:href="#m19980e2a16" x="58.153125" y="99.70322" style="fill: #66b266; stroke: #66b266"/>
     <use xlink:href="#m19980e2a16" x="65.128125" y="99.70322" style="fill: #66b266; stroke: #66b266"/>
     <use xlink:href="#m19980e2a16" x="72.103125" y="99.70322" style="fill: #66b266; stroke: #66b266"/>
     <use xlink:href="#m19980e2a16" x="79.078125" y="99.70322" style="fill: #66b266; stroke: #66b266"/>
     <use xlink:href="#m19980e2a16" x="86.053125" y="99.70322" style="fill: #66b266; stroke: #66b266"/>
     <use xlink:href="#m19980e2a16" x="93.028125" y="99.70322" style="fill: #66b266; stroke: #66b266"/>
     <use xlink:href="#m19980e2a16" x="100.003125" y="99.70322" style="fill: #66b266; stroke: #66b266"/>
     <use xlink:href="#m19980e2a16" x="106.978125" y="99.70322" style="fill: #66b266; stroke: #66b266"/>
     <use xlink:href="#m19980e2a16" x="113.953125" y="99.70322" style="fill: #66b266; stroke: #66b266"/>
     <use xlink:href="#m19980e2a16" x="120.928125" y="99.70322" style="fill: #66b266; stroke: #66b266"/>
     <use xlink:href="#m19980e2a16" x="127.903125" y="99.70322" style="fill: #66b266; stroke: #66b266"/>
     <use xlink:href="#m19980e2a16" x="134.878125" y="99.70322" style="fill: #66b266; stroke: #66b266"/>
     <use xlink:href="#m19980e2a16" x="141.853125" y="99.70322" style="fill: #66b266; stroke: #66b266"/>
     <use xlink:href="#m19980e2a16" x="148.828125" y="99.70322" style="fill: #66b266; stroke: #66b266"/>
     <use xlink:href="#m19980e2a16" x="155.803125" y="99.70322" style="fill: #66b266; stroke: #66b266"/>
     <use xlink:href="#m19980e2a16" x="162.778125" y="99.70322" style="fill: #66b266; stroke: #66b266"/>
     <use xlink:href="#m19980e2a16" x="169.753125" y="99.70322" style="fill: #66b266; stroke: #66b266"/>
     <use xlink:href="#m19980e2a16" x="176.728125" y="99.70322" style="fill: #66b266; stroke: #66b266"/>
     <use xlink:href="#m19980e2a16" x="183.703125" y="99.70322" style="fill: #66b266; stroke: #66b266"/>
     <use xlink:href="#m19980e2a16" x="190.678125" y="99.70322" style="fill: #66b266; stroke: #66b266"/>
     <use xlink:href="#m19980e2a16" x="197.653125" y="99.70322" style="fill: #66b266; stroke: #66b266"/>
     <use xlink:href="#m19980e2a16" x="204.628125" y="99.70322" style="fill: #66b266; stroke: #66b266"/>
     <use xlink:href="#m19980e2a16" x="211.603125" y="99.70322" style="fill: #66b266; stroke: #66b266"/>
     <use xlink:href="#m19980e2a16" x="218.578125" y="99.70322" style="fill: #66b266; stroke: #66b266"/>
     <use xlink:href="#m19980e2a16" x="225.553125" y="99.70322" style="fill: #66b266; stroke: #66b266"/>
     <use xlink:href="#m19980e2a16" x="232.528125" y="99.70322" style="fill: #66b266; stroke: #66b266"/>
     <use xlink:href="#m19980e2a16" x="239.503125" y="99.70322" style="fill: #66b266; stroke: #66b266"/>
     <use xlink:href="#m19980e2a16" x="246.478125" y="99.70322" style="fill: #66b266; stroke: #66b266"/>
     <use xlink:href="#m19980e2a16" x="253.453125" y="99.70322" style="fill: #66b266; stroke: #66b266"/>
     <use xlink:href="#m19980e2a16" x="260.428125" y="99.70322" style="fill: #66b266; stroke: #66b266"/>
     <use xlink:href="#m19980e2a16" x="267.403125" y="99.70322" style="fill: #66b266; stroke: #66b266"/>
     <use xlink:href="#m19980e2a16" x="274.378125" y="99.70322" style="fill: #66b266; stroke: #66b266"/>
     <use xlink:href="#m19980e2a16" x="281.353125" y="99.70322" style="fill: #66b266; stroke: #66b266"/>
     <use xlink:href="#m19980e2a16" x="288.328125" y="99.70322" style="fill: #66b266; stroke: #66b266"/>
     <use xlink:href="#m19980e2a16" x="295.303125" y="99.70322" style="fill: #66b266; stroke: #66b266"/>
     <use xlink:href="#m19980e2a16" x="302.278125" y="99.70322" style="fill: #66b266; stroke: #66b266"/>
     <use xlink:href="#m19980e2a16" x="309.253125" y="99.70322" style="fill: #66b266; stroke: #66b266"/>
     <use xlink:href="#m19980e2a16" x="316.228125" y="99.70322" style="fill: #66b266; stroke: #66b266"/>
    </g>
   </g>
   <g id="line2d_17">
    <path d="M 79.078125 33.175219 
L 86.053125 33.175219 
L 93.028125 33.175219 
L 100.003125 33.175219 
L 106.978125 33.175219 
L 113.953125 33.175219 
L 120.928125 33.175219 
L 127.903125 33.175219 
L 134.878125 33.175219 
L 141.853125 33.175219 
L 148.828125 33.175219 
L 155.803125 33.175219 
L 162.778125 33.175219 
L 169.753125 33.175219 
L 176.728125 33.175219 
L 183.703125 33.175219 
L 190.678125 33.175219 
L 197.653125 33.175219 
L 204.628125 33.175219 
L 211.603125 33.175219 
L 218.578125 33.175219 
L 225.553125 33.175219 
L 232.528125 33.175219 
L 239.503125 33.175219 
L 246.478125 33.175219 
L 253.453125 33.175219 
L 260.428125 33.175219 
L 267.403125 33.175219 
L 274.378125 33.175219 
L 281.353125 33.175219 
L 288.328125 33.175219 
L 295.303125 33.175219 
L 302.278125 33.175219 
L 309.253125 33.175219 
L 316.228125 33.175219 
" clip-path="url(#pb1f95c3ca5)" style="fill: none; stroke-dasharray: 2,3.3; stroke-dashoffset: 0; stroke: #ff0000; stroke-width: 2"/>
    <defs>
     <path id="md4e2b4b14c" d="M 0 2 
C 0.530406 2 1.03916 1.789267 1.414214 1.414214 
C 1.789267 1.03916 2 0.530406 2 0 
C 2 -0.530406 1.789267 -1.03916 1.414214 -1.414214 
C 1.03916 -1.789267 0.530406 -2 0 -2 
C -0.530406 -2 -1.03916 -1.789267 -1.414214 -1.414214 
C -1.789267 -1.03916 -2 -0.530406 -2 0 
C -2 0.530406 -1.789267 1.03916 -1.414214 1.414214 
C -1.03916 1.789267 -0.530406 2 0 2 
z
" style="stroke: #ff0000"/>
    </defs>
    <g clip-path="url(#pb1f95c3ca5)">
     <use xlink:href="#md4e2b4b14c" x="79.078125" y="33.175219" style="fill: #ff0000; stroke: #ff0000"/>
     <use xlink:href="#md4e2b4b14c" x="86.053125" y="33.175219" style="fill: #ff0000; stroke: #ff0000"/>
     <use xlink:href="#md4e2b4b14c" x="93.028125" y="33.175219" style="fill: #ff0000; stroke: #ff0000"/>
     <use xlink:href="#md4e2b4b14c" x="100.003125" y="33.175219" style="fill: #ff0000; stroke: #ff0000"/>
     <use xlink:href="#md4e2b4b14c" x="106.978125" y="33.175219" style="fill: #ff0000; stroke: #ff0000"/>
     <use xlink:href="#md4e2b4b14c" x="113.953125" y="33.175219" style="fill: #ff0000; stroke: #ff0000"/>
     <use xlink:href="#md4e2b4b14c" x="120.928125" y="33.175219" style="fill: #ff0000; stroke: #ff0000"/>
     <use xlink:href="#md4e2b4b14c" x="127.903125" y="33.175219" style="fill: #ff0000; stroke: #ff0000"/>
     <use xlink:href="#md4e2b4b14c" x="134.878125" y="33.175219" style="fill: #ff0000; stroke: #ff0000"/>
     <use xlink:href="#md4e2b4b14c" x="141.853125" y="33.175219" style="fill: #ff0000; stroke: #ff0000"/>
     <use xlink:href="#md4e2b4b14c" x="148.828125" y="33.175219" style="fill: #ff0000; stroke: #ff0000"/>
     <use xlink:href="#md4e2b4b14c" x="155.803125" y="33.175219" style="fill: #ff0000; stroke: #ff0000"/>
     <use xlink:href="#md4e2b4b14c" x="162.778125" y="33.175219" style="fill: #ff0000; stroke: #ff0000"/>
     <use xlink:href="#md4e2b4b14c" x="169.753125" y="33.175219" style="fill: #ff0000; stroke: #ff0000"/>
     <use xlink:href="#md4e2b4b14c" x="176.728125" y="33.175219" style="fill: #ff0000; stroke: #ff0000"/>
     <use xlink:href="#md4e2b4b14c" x="183.703125" y="33.175219" style="fill: #ff0000; stroke: #ff0000"/>
     <use xlink:href="#md4e2b4b14c" x="190.678125" y="33.175219" style="fill: #ff0000; stroke: #ff0000"/>
     <use xlink:href="#md4e2b4b14c" x="197.653125" y="33.175219" style="fill: #ff0000; stroke: #ff0000"/>
     <use xlink:href="#md4e2b4b14c" x="204.628125" y="33.175219" style="fill: #ff0000; stroke: #ff0000"/>
     <use xlink:href="#md4e2b4b14c" x="211.603125" y="33.175219" style="fill: #ff0000; stroke: #ff0000"/>
     <use xlink:href="#md4e2b4b14c" x="218.578125" y="33.175219" style="fill: #ff0000; stroke: #ff0000"/>
     <use xlink:href="#md4e2b4b14c" x="225.553125" y="33.175219" style="fill: #ff0000; stroke: #ff0000"/>
     <use xlink:href="#md4e2b4b14c" x="232.528125" y="33.175219" style="fill: #ff0000; stroke: #ff0000"/>
     <use xlink:href="#md4e2b4b14c" x="239.503125" y="33.175219" style="fill: #ff0000; stroke: #ff0000"/>
     <use xlink:href="#md4e2b4b14c" x="246.478125" y="33.175219" style="fill: #ff0000; stroke: #ff0000"/>
     <use xlink:href="#md4e2b4b14c" x="253.453125" y="33.175219" style="fill: #ff0000; stroke: #ff0000"/>
     <use xlink:href="#md4e2b4b14c" x="260.428125" y="33.175219" style="fill: #ff0000; stroke: #ff0000"/>
     <use xlink:href="#md4e2b4b14c" x="267.403125" y="33.175219" style="fill: #ff0000; stroke: #ff0000"/>
     <use xlink:href="#md4e2b4b14c" x="274.378125" y="33.175219" style="fill: #ff0000; stroke: #ff0000"/>
     <use xlink:href="#md4e2b4b14c" x="281.353125" y="33.175219" style="fill: #ff0000; stroke: #ff0000"/>
     <use xlink:href="#md4e2b4b14c" x="288.328125" y="33.175219" style="fill: #ff0000; stroke: #ff0000"/>
     <use xlink:href="#md4e2b4b14c" x="295.303125" y="33.175219" style="fill: #ff0000; stroke: #ff0000"/>
     <use xlink:href="#md4e2b4b14c" x="302.278125" y="33.175219" style="fill: #ff0000; stroke: #ff0000"/>
     <use xlink:href="#md4e2b4b14c" x="309.253125" y="33.175219" style="fill: #ff0000; stroke: #ff0000"/>
     <use xlink:href="#md4e2b4b14c" x="316.228125" y="33.175219" style="fill: #ff0000; stroke: #ff0000"/>
    </g>
   </g>
   <g id="line2d_18">
    <path d="M 148.828125 22.087219 
L 155.803125 22.087219 
L 162.778125 22.087219 
L 169.753125 22.087219 
L 176.728125 22.087219 
L 183.703125 22.087219 
L 190.678125 22.087219 
L 197.653125 22.087219 
L 204.628125 22.087219 
L 211.603125 22.087219 
L 218.578125 22.087219 
L 225.553125 22.087219 
L 232.528125 22.087219 
L 239.503125 22.087219 
L 246.478125 22.087219 
L 253.453125 22.087219 
L 260.428125 22.087219 
L 267.403125 22.087219 
L 274.378125 22.087219 
L 281.353125 22.087219 
L 288.328125 22.087219 
L 295.303125 22.087219 
L 302.278125 22.087219 
L 309.253125 22.087219 
L 316.228125 22.087219 
" clip-path="url(#pb1f95c3ca5)" style="fill: none; stroke-dasharray: 2,3.3; stroke-dashoffset: 0; stroke: #ff9900; stroke-width: 2"/>
    <defs>
     <path id="m28a5a5adbf" d="M 0 2 
C 0.530406 2 1.03916 1.789267 1.414214 1.414214 
C 1.789267 1.03916 2 0.530406 2 0 
C 2 -0.530406 1.789267 -1.03916 1.414214 -1.414214 
C 1.03916 -1.789267 0.530406 -2 0 -2 
C -0.530406 -2 -1.03916 -1.789267 -1.414214 -1.414214 
C -1.789267 -1.03916 -2 -0.530406 -2 0 
C -2 0.530406 -1.789267 1.03916 -1.414214 1.414214 
C -1.03916 1.789267 -0.530406 2 0 2 
z
" style="stroke: #ff9900"/>
    </defs>
    <g clip-path="url(#pb1f95c3ca5)">
     <use xlink:href="#m28a5a5adbf" x="148.828125" y="22.087219" style="fill: #ff9900; stroke: #ff9900"/>
     <use xlink:href="#m28a5a5adbf" x="155.803125" y="22.087219" style="fill: #ff9900; stroke: #ff9900"/>
     <use xlink:href="#m28a5a5adbf" x="162.778125" y="22.087219" style="fill: #ff9900; stroke: #ff9900"/>
     <use xlink:href="#m28a5a5adbf" x="169.753125" y="22.087219" style="fill: #ff9900; stroke: #ff9900"/>
     <use xlink:href="#m28a5a5adbf" x="176.728125" y="22.087219" style="fill: #ff9900; stroke: #ff9900"/>
     <use xlink:href="#m28a5a5adbf" x="183.703125" y="22.087219" style="fill: #ff9900; stroke: #ff9900"/>
     <use xlink:href="#m28a5a5adbf" x="190.678125" y="22.087219" style="fill: #ff9900; stroke: #ff9900"/>
     <use xlink:href="#m28a5a5adbf" x="197.653125" y="22.087219" style="fill: #ff9900; stroke: #ff9900"/>
     <use xlink:href="#m28a5a5adbf" x="204.628125" y="22.087219" style="fill: #ff9900; stroke: #ff9900"/>
     <use xlink:href="#m28a5a5adbf" x="211.603125" y="22.087219" style="fill: #ff9900; stroke: #ff9900"/>
     <use xlink:href="#m28a5a5adbf" x="218.578125" y="22.087219" style="fill: #ff9900; stroke: #ff9900"/>
     <use xlink:href="#m28a5a5adbf" x="225.553125" y="22.087219" style="fill: #ff9900; stroke: #ff9900"/>
     <use xlink:href="#m28a5a5adbf" x="232.528125" y="22.087219" style="fill: #ff9900; stroke: #ff9900"/>
     <use xlink:href="#m28a5a5adbf" x="239.503125" y="22.087219" style="fill: #ff9900; stroke: #ff9900"/>
     <use xlink:href="#m28a5a5adbf" x="246.478125" y="22.087219" style="fill: #ff9900; stroke: #ff9900"/>
     <use xlink:href="#m28a5a5adbf" x="253.453125" y="22.087219" style="fill: #ff9900; stroke: #ff9900"/>
     <use xlink:href="#m28a5a5adbf" x="260.428125" y="22.087219" style="fill: #ff9900; stroke: #ff9900"/>
     <use xlink:href="#m28a5a5adbf" x="267.403125" y="22.087219" style="fill: #ff9900; stroke: #ff9900"/>
     <use xlink:href="#m28a5a5adbf" x="274.378125" y="22.087219" style="fill: #ff9900; stroke: #ff9900"/>
     <use xlink:href="#m28a5a5adbf" x="281.353125" y="22.087219" style="fill: #ff9900; stroke: #ff9900"/>
     <use xlink:href="#m28a5a5adbf" x="288.328125" y="22.087219" style="fill: #ff9900; stroke: #ff9900"/>
     <use xlink:href="#m28a5a5adbf" x="295.303125" y="22.087219" style="fill: #ff9900; stroke: #ff9900"/>
     <use xlink:href="#m28a5a5adbf" x="302.278125" y="22.087219" style="fill: #ff9900; stroke: #ff9900"/>
     <use xlink:href="#m28a5a5adbf" x="309.253125" y="22.087219" style="fill: #ff9900; stroke: #ff9900"/>
     <use xlink:href="#m28a5a5adbf" x="316.228125" y="22.087219" style="fill: #ff9900; stroke: #ff9900"/>
    </g>
   </g>
   <g id="line2d_19">
    <path d="M 183.703125 33.175219 
L 190.678125 33.175219 
L 197.653125 33.175219 
L 204.628125 33.175219 
L 211.603125 33.175219 
L 218.578125 33.175219 
L 225.553125 33.175219 
L 232.528125 33.175219 
L 239.503125 33.175219 
L 246.478125 33.175219 
L 253.453125 33.175219 
L 260.428125 33.175219 
L 267.403125 33.175219 
L 274.378125 33.175219 
L 281.353125 33.175219 
L 288.328125 33.175219 
L 295.303125 33.175219 
L 302.278125 33.175219 
L 309.253125 33.175219 
L 316.228125 33.175219 
" clip-path="url(#pb1f95c3ca5)" style="fill: none; stroke-dasharray: 2,3.3; stroke-dashoffset: 0; stroke: #00994c; stroke-width: 2"/>
    <defs>
     <path id="m947fd3f17b" d="M 0 2 
C 0.530406 2 1.03916 1.789267 1.414214 1.414214 
C 1.789267 1.03916 2 0.530406 2 0 
C 2 -0.530406 1.789267 -1.03916 1.414214 -1.414214 
C 1.03916 -1.789267 0.530406 -2 0 -2 
C -0.530406 -2 -1.03916 -1.789267 -1.414214 -1.414214 
C -1.789267 -1.03916 -2 -0.530406 -2 0 
C -2 0.530406 -1.789267 1.03916 -1.414214 1.414214 
C -1.03916 1.789267 -0.530406 2 0 2 
z
" style="stroke: #00994c"/>
    </defs>
    <g clip-path="url(#pb1f95c3ca5)">
     <use xlink:href="#m947fd3f17b" x="183.703125" y="33.175219" style="fill: #00994c; stroke: #00994c"/>
     <use xlink:href="#m947fd3f17b" x="190.678125" y="33.175219" style="fill: #00994c; stroke: #00994c"/>
     <use xlink:href="#m947fd3f17b" x="197.653125" y="33.175219" style="fill: #00994c; stroke: #00994c"/>
     <use xlink:href="#m947fd3f17b" x="204.628125" y="33.175219" style="fill: #00994c; stroke: #00994c"/>
     <use xlink:href="#m947fd3f17b" x="211.603125" y="33.175219" style="fill: #00994c; stroke: #00994c"/>
     <use xlink:href="#m947fd3f17b" x="218.578125" y="33.175219" style="fill: #00994c; stroke: #00994c"/>
     <use xlink:href="#m947fd3f17b" x="225.553125" y="33.175219" style="fill: #00994c; stroke: #00994c"/>
     <use xlink:href="#m947fd3f17b" x="232.528125" y="33.175219" style="fill: #00994c; stroke: #00994c"/>
     <use xlink:href="#m947fd3f17b" x="239.503125" y="33.175219" style="fill: #00994c; stroke: #00994c"/>
     <use xlink:href="#m947fd3f17b" x="246.478125" y="33.175219" style="fill: #00994c; stroke: #00994c"/>
     <use xlink:href="#m947fd3f17b" x="253.453125" y="33.175219" style="fill: #00994c; stroke: #00994c"/>
     <use xlink:href="#m947fd3f17b" x="260.428125" y="33.175219" style="fill: #00994c; stroke: #00994c"/>
     <use xlink:href="#m947fd3f17b" x="267.403125" y="33.175219" style="fill: #00994c; stroke: #00994c"/>
     <use xlink:href="#m947fd3f17b" x="274.378125" y="33.175219" style="fill: #00994c; stroke: #00994c"/>
     <use xlink:href="#m947fd3f17b" x="281.353125" y="33.175219" style="fill: #00994c; stroke: #00994c"/>
     <use xlink:href="#m947fd3f17b" x="288.328125" y="33.175219" style="fill: #00994c; stroke: #00994c"/>
     <use xlink:href="#m947fd3f17b" x="295.303125" y="33.175219" style="fill: #00994c; stroke: #00994c"/>
     <use xlink:href="#m947fd3f17b" x="302.278125" y="33.175219" style="fill: #00994c; stroke: #00994c"/>
     <use xlink:href="#m947fd3f17b" x="309.253125" y="33.175219" style="fill: #00994c; stroke: #00994c"/>
     <use xlink:href="#m947fd3f17b" x="316.228125" y="33.175219" style="fill: #00994c; stroke: #00994c"/>
    </g>
   </g>
   <g id="patch_3">
    <path d="M 44.203125 121.879219 
L 44.203125 10.999219 
" style="fill: none; stroke: #000000; stroke-width: 0.8; stroke-linejoin: miter; stroke-linecap: square"/>
   </g>
   <g id="patch_4">
    <path d="M 323.203125 121.879219 
L 323.203125 10.999219 
" style="fill: none; stroke: #000000; stroke-width: 0.8; stroke-linejoin: miter; stroke-linecap: square"/>
   </g>
   <g id="patch_5">
    <path d="M 44.203125 121.879219 
L 323.203125 121.879219 
" style="fill: none; stroke: #000000; stroke-width: 0.8; stroke-linejoin: miter; stroke-linecap: square"/>
   </g>
   <g id="patch_6">
    <path d="M 44.203125 10.999219 
L 323.203125 10.999219 
" style="fill: none; stroke: #000000; stroke-width: 0.8; stroke-linejoin: miter; stroke-linecap: square"/>
   </g>
   <g id="legend_1">
    <g id="patch_7">
     <path d="M 63.803125 75.488438 
L 316.203125 75.488438 
Q 318.203125 75.488438 318.203125 73.488438 
L 318.203125 59.39 
Q 318.203125 57.39 316.203125 57.39 
L 63.803125 57.39 
Q 61.803125 57.39 61.803125 59.39 
L 61.803125 73.488438 
Q 61.803125 75.488438 63.803125 75.488438 
z
" style="fill: #ffffff; opacity: 0.8; stroke: #cccccc; stroke-linejoin: miter"/>
    </g>
    <g id="line2d_20">
     <path d="M 65.803125 65.488438 
L 75.803125 65.488438 
L 85.803125 65.488438 
" style="fill: none; stroke-dasharray: 2,3.3; stroke-dashoffset: 0; stroke: #66b266; stroke-width: 2"/>
     <g>
      <use xlink:href="#m19980e2a16" x="75.803125" y="65.488438" style="fill: #66b266; stroke: #66b266"/>
     </g>
    </g>
    <g id="text_18">
     <!-- $\rho_{0}$$_{,k}$ -->
     <g transform="translate(93.803125 68.988438) scale(0.1 -0.1)">
      <use xlink:href="#DejaVuSans-Oblique-3c1"/>
      <use xlink:href="#DejaVuSans-30" transform="translate(63.476562 -16.40625) scale(0.7)"/>
      <use xlink:href="#DejaVuSans-2c" transform="translate(111.704102 -16.40625) scale(0.7)"/>
      <use xlink:href="#DejaVuSans-Oblique-6b" transform="translate(147.592773 -16.40625) scale(0.7)"/>
     </g>
    </g>
    <g id="line2d_21">
     <path d="M 132.903125 65.488438 
L 142.903125 65.488438 
L 152.903125 65.488438 
" style="fill: none; stroke-dasharray: 2,3.3; stroke-dashoffset: 0; stroke: #ff0000; stroke-width: 2"/>
     <g>
      <use xlink:href="#md4e2b4b14c" x="142.903125" y="65.488438" style="fill: #ff0000; stroke: #ff0000"/>
     </g>
    </g>
    <g id="text_19">
     <!-- $\rho_{1}$$_{,k}$ -->
     <g transform="translate(160.903125 68.988438) scale(0.1 -0.1)">
      <use xlink:href="#DejaVuSans-Oblique-3c1"/>
      <use xlink:href="#DejaVuSans-31" transform="translate(63.476562 -16.40625) scale(0.7)"/>
      <use xlink:href="#DejaVuSans-2c" transform="translate(111.704102 -16.40625) scale(0.7)"/>
      <use xlink:href="#DejaVuSans-Oblique-6b" transform="translate(147.592773 -16.40625) scale(0.7)"/>
     </g>
    </g>
    <g id="line2d_22">
     <path d="M 200.003125 65.488438 
L 210.003125 65.488438 
L 220.003125 65.488438 
" style="fill: none; stroke-dasharray: 2,3.3; stroke-dashoffset: 0; stroke: #ff9900; stroke-width: 2"/>
     <g>
      <use xlink:href="#m28a5a5adbf" x="210.003125" y="65.488438" style="fill: #ff9900; stroke: #ff9900"/>
     </g>
    </g>
    <g id="text_20">
     <!-- $\rho_{2}$$_{,k}$ -->
     <g transform="translate(228.003125 68.988438) scale(0.1 -0.1)">
      <use xlink:href="#DejaVuSans-Oblique-3c1"/>
      <use xlink:href="#DejaVuSans-32" transform="translate(63.476562 -16.40625) scale(0.7)"/>
      <use xlink:href="#DejaVuSans-2c" transform="translate(111.704102 -16.40625) scale(0.7)"/>
      <use xlink:href="#DejaVuSans-Oblique-6b" transform="translate(147.592773 -16.40625) scale(0.7)"/>
     </g>
    </g>
    <g id="line2d_23">
     <path d="M 267.103125 65.488438 
L 277.103125 65.488438 
L 287.103125 65.488438 
" style="fill: none; stroke-dasharray: 2,3.3; stroke-dashoffset: 0; stroke: #00994c; stroke-width: 2"/>
     <g>
      <use xlink:href="#m947fd3f17b" x="277.103125" y="65.488438" style="fill: #00994c; stroke: #00994c"/>
     </g>
    </g>
    <g id="text_21">
     <!-- $\rho_{3}$$_{,k}$ -->
     <g transform="translate(295.103125 68.988438) scale(0.1 -0.1)">
      <use xlink:href="#DejaVuSans-Oblique-3c1"/>
      <use xlink:href="#DejaVuSans-33" transform="translate(63.476562 -16.40625) scale(0.7)"/>
      <use xlink:href="#DejaVuSans-2c" transform="translate(111.704102 -16.40625) scale(0.7)"/>
      <use xlink:href="#DejaVuSans-Oblique-6b" transform="translate(147.592773 -16.40625) scale(0.7)"/>
     </g>
    </g>
   </g>
  </g>
 </g>
 <defs>
  <clipPath id="pb1f95c3ca5">
   <rect x="44.203125" y="10.999219" width="279" height="110.88"/>
  </clipPath>
 </defs>
</svg>
